<?xml version="1.0" encoding="UTF-8" standalone="no"?>
<!DOCTYPE svg PUBLIC "-//W3C//DTD SVG 1.1//EN"
 "http://www.w3.org/Graphics/SVG/1.1/DTD/svg11.dtd">
<!-- Generated by graphviz version 2.47.0 (20210316.0004)
 -->
<!-- Title: dependencies Pages: 1 -->
<svg width="4900pt" height="284pt"
 viewBox="0.00 0.00 4900.00 284.00" xmlns="http://www.w3.org/2000/svg" xmlns:xlink="http://www.w3.org/1999/xlink">
<g id="graph0" class="graph" transform="scale(1 1) rotate(0) translate(4 280)">
<title>dependencies</title>
<polygon fill="white" stroke="transparent" points="-4,4 -4,-280 4896,-280 4896,4 -4,4"/>
<text text-anchor="start" x="2425.01" y="-42.4" font-family="Times-12" font-weight="bold" font-size="14.00">Legend</text>
<polygon fill="#ffffb3" stroke="transparent" points="2212,-10 2212,-30 2232,-30 2232,-10 2212,-10"/>
<text text-anchor="start" x="2235.63" y="-15.4" font-family="Times-12" font-size="14.00"> &#160;Declarations</text>
<polygon fill="#8dd3c7" stroke="transparent" points="2325,-10 2325,-30 2345,-30 2345,-10 2325,-10"/>
<text text-anchor="start" x="2348.73" y="-15.4" font-family="Times-12" font-size="14.00"> &#160;Module</text>
<polygon fill="#80b1d3" stroke="transparent" points="2411,-10 2411,-30 2431,-30 2431,-10 2411,-10"/>
<text text-anchor="start" x="2434.78" y="-15.4" font-family="Times-12" font-size="14.00"> &#160;Bootstrap</text>
<polygon fill="#fdb462" stroke="transparent" points="2508,-10 2508,-30 2528,-30 2528,-10 2508,-10"/>
<text text-anchor="start" x="2531.67" y="-15.4" font-family="Times-12" font-size="14.00"> &#160;Providers</text>
<polygon fill="#fb8072" stroke="transparent" points="2604,-10 2604,-30 2624,-30 2624,-10 2604,-10"/>
<text text-anchor="start" x="2627.73" y="-15.4" font-family="Times-12" font-size="14.00"> &#160;Exports</text>
<g id="clust1" class="cluster">
<title>cluster_AppModule</title>
<polygon fill="none" stroke="black" stroke-dasharray="1,5" points="8,-70 8,-268 4884,-268 4884,-70 8,-70"/>
</g>
<g id="clust2" class="cluster">
<title>cluster_AppModule_declarations</title>
<polygon fill="none" stroke="black" points="1835,-78 1835,-130 4876,-130 4876,-78 1835,-78"/>
</g>
<g id="clust21" class="cluster">
<title>cluster_AppModule_imports</title>
<polygon fill="none" stroke="black" points="729,-78 729,-130 1827,-130 1827,-78 729,-78"/>
</g>
<g id="clust23" class="cluster">
<title>cluster_AppModule_bootstrap</title>
<polygon fill="none" stroke="black" points="2439,-208 2439,-260 2563,-260 2563,-208 2439,-208"/>
</g>
<g id="clust24" class="cluster">
<title>cluster_AppModule_providers</title>
<polygon fill="none" stroke="black" points="16,-78 16,-130 721,-130 721,-78 16,-78"/>
</g>
<!-- AppComponent -->
<g id="node1" class="node">
<title>AppComponent</title>
<polygon fill="#ffffb3" stroke="black" points="4867.94,-122 4762.06,-122 4762.06,-86 4867.94,-86 4867.94,-122"/>
<text text-anchor="middle" x="4815" y="-99.8" font-family="Times,serif" font-size="14.00">AppComponent</text>
</g>
<!-- AppModule -->
<g id="node19" class="node">
<title>AppModule</title>
<polygon fill="#8dd3c7" stroke="black" points="2542.66,-187 2539.66,-191 2518.66,-191 2515.66,-187 2459.34,-187 2459.34,-151 2542.66,-151 2542.66,-187"/>
<text text-anchor="middle" x="2501" y="-164.8" font-family="Times,serif" font-size="14.00">AppModule</text>
</g>
<!-- AppComponent&#45;&gt;AppModule -->
<g id="edge1" class="edge">
<title>AppComponent&#45;&gt;AppModule</title>
<path fill="none" stroke="black" d="M4815,-122.38C4815,-146.28 4815,-185 4815,-185 4815,-185 2553.14,-185 2553.14,-185"/>
<polygon fill="black" stroke="black" points="2553.14,-181.5 2543.14,-185 2553.14,-188.5 2553.14,-181.5"/>
</g>
<!-- HeaderComponent -->
<g id="node2" class="node">
<title>HeaderComponent</title>
<polygon fill="#ffffb3" stroke="black" points="4743.74,-122 4622.26,-122 4622.26,-86 4743.74,-86 4743.74,-122"/>
<text text-anchor="middle" x="4683" y="-99.8" font-family="Times,serif" font-size="14.00">HeaderComponent</text>
</g>
<!-- HeaderComponent&#45;&gt;AppModule -->
<g id="edge2" class="edge">
<title>HeaderComponent&#45;&gt;AppModule</title>
<path fill="none" stroke="black" d="M4683,-122.32C4683,-145.66 4683,-183 4683,-183 4683,-183 2553.12,-183 2553.12,-183"/>
<polygon fill="black" stroke="black" points="2553.12,-179.5 2543.12,-183 2553.12,-186.5 2553.12,-179.5"/>
</g>
<!-- ScreenboxComponent -->
<g id="node3" class="node">
<title>ScreenboxComponent</title>
<polygon fill="#ffffb3" stroke="black" points="4604.42,-122 4463.58,-122 4463.58,-86 4604.42,-86 4604.42,-122"/>
<text text-anchor="middle" x="4534" y="-99.8" font-family="Times,serif" font-size="14.00">ScreenboxComponent</text>
</g>
<!-- ScreenboxComponent&#45;&gt;AppModule -->
<g id="edge3" class="edge">
<title>ScreenboxComponent&#45;&gt;AppModule</title>
<path fill="none" stroke="black" d="M4534,-122.01C4534,-144.49 4534,-180 4534,-180 4534,-180 2553,-180 2553,-180"/>
<polygon fill="black" stroke="black" points="2553,-176.5 2543,-180 2553,-183.5 2553,-176.5"/>
</g>
<!-- FooterComponent -->
<g id="node4" class="node">
<title>FooterComponent</title>
<polygon fill="#ffffb3" stroke="black" points="4445.88,-122 4328.12,-122 4328.12,-86 4445.88,-86 4445.88,-122"/>
<text text-anchor="middle" x="4387" y="-99.8" font-family="Times,serif" font-size="14.00">FooterComponent</text>
</g>
<!-- FooterComponent&#45;&gt;AppModule -->
<g id="edge4" class="edge">
<title>FooterComponent&#45;&gt;AppModule</title>
<path fill="none" stroke="black" d="M4387,-122.29C4387,-144.21 4387,-178 4387,-178 4387,-178 2553.04,-178 2553.04,-178"/>
<polygon fill="black" stroke="black" points="2553.04,-174.5 2543.04,-178 2553.04,-181.5 2553.04,-174.5"/>
</g>
<!-- InfoComponent -->
<g id="node5" class="node">
<title>InfoComponent</title>
<polygon fill="#ffffb3" stroke="black" points="4310.15,-122 4205.85,-122 4205.85,-86 4310.15,-86 4310.15,-122"/>
<text text-anchor="middle" x="4258" y="-99.8" font-family="Times,serif" font-size="14.00">InfoComponent</text>
</g>
<!-- InfoComponent&#45;&gt;AppModule -->
<g id="edge5" class="edge">
<title>InfoComponent&#45;&gt;AppModule</title>
<path fill="none" stroke="black" d="M4258,-122.28C4258,-143.32 4258,-175 4258,-175 4258,-175 2552.7,-175 2552.7,-175"/>
<polygon fill="black" stroke="black" points="2552.7,-171.5 2542.7,-175 2552.7,-178.5 2552.7,-171.5"/>
</g>
<!-- MessageComponent -->
<g id="node6" class="node">
<title>MessageComponent</title>
<polygon fill="#ffffb3" stroke="black" points="4188.31,-122 4057.69,-122 4057.69,-86 4188.31,-86 4188.31,-122"/>
<text text-anchor="middle" x="4123" y="-99.8" font-family="Times,serif" font-size="14.00">MessageComponent</text>
</g>
<!-- MessageComponent&#45;&gt;AppModule -->
<g id="edge6" class="edge">
<title>MessageComponent&#45;&gt;AppModule</title>
<path fill="none" stroke="black" d="M4123,-122.13C4123,-142.57 4123,-173 4123,-173 4123,-173 2552.72,-173 2552.72,-173"/>
<polygon fill="black" stroke="black" points="2552.72,-169.5 2542.72,-173 2552.72,-176.5 2552.72,-169.5"/>
</g>
<!-- ScreenComponent -->
<g id="node7" class="node">
<title>ScreenComponent</title>
<polygon fill="#ffffb3" stroke="black" points="4039.92,-122 3920.08,-122 3920.08,-86 4039.92,-86 4039.92,-122"/>
<text text-anchor="middle" x="3980" y="-99.8" font-family="Times,serif" font-size="14.00">ScreenComponent</text>
</g>
<!-- ScreenComponent&#45;&gt;AppModule -->
<g id="edge7" class="edge">
<title>ScreenComponent&#45;&gt;AppModule</title>
<path fill="none" stroke="black" d="M3980,-122.31C3980,-142.15 3980,-171 3980,-171 3980,-171 2552.88,-171 2552.88,-171"/>
<polygon fill="black" stroke="black" points="2552.88,-167.5 2542.88,-171 2552.88,-174.5 2552.88,-167.5"/>
</g>
<!-- AddWeightedEdgeComponent -->
<g id="node8" class="node">
<title>AddWeightedEdgeComponent</title>
<polygon fill="#ffffb3" stroke="black" points="3902.13,-122 3713.87,-122 3713.87,-86 3902.13,-86 3902.13,-122"/>
<text text-anchor="middle" x="3808" y="-99.8" font-family="Times,serif" font-size="14.00">AddWeightedEdgeComponent</text>
</g>
<!-- AddWeightedEdgeComponent&#45;&gt;AppModule -->
<g id="edge8" class="edge">
<title>AddWeightedEdgeComponent&#45;&gt;AppModule</title>
<path fill="none" stroke="black" d="M3808,-122.17C3808,-141.09 3808,-168 3808,-168 3808,-168 2553.01,-168 2553.01,-168"/>
<polygon fill="black" stroke="black" points="2553.01,-164.5 2543.01,-168 2553.01,-171.5 2553.01,-164.5"/>
</g>
<!-- MatrixComponent -->
<g id="node9" class="node">
<title>MatrixComponent</title>
<polygon fill="#ffffb3" stroke="black" points="3695.93,-122 3576.07,-122 3576.07,-86 3695.93,-86 3695.93,-122"/>
<text text-anchor="middle" x="3636" y="-99.8" font-family="Times,serif" font-size="14.00">MatrixComponent</text>
</g>
<!-- MatrixComponent&#45;&gt;AppModule -->
<g id="edge9" class="edge">
<title>MatrixComponent&#45;&gt;AppModule</title>
<path fill="none" stroke="black" d="M3636,-122.27C3636,-140.56 3636,-166 3636,-166 3636,-166 2552.74,-166 2552.74,-166"/>
<polygon fill="black" stroke="black" points="2552.74,-162.5 2542.74,-166 2552.74,-169.5 2552.74,-162.5"/>
</g>
<!-- ChangeIdNodeComponent -->
<g id="node10" class="node">
<title>ChangeIdNodeComponent</title>
<polygon fill="#ffffb3" stroke="black" points="3558.08,-122 3391.92,-122 3391.92,-86 3558.08,-86 3558.08,-122"/>
<text text-anchor="middle" x="3475" y="-99.8" font-family="Times,serif" font-size="14.00">ChangeIdNodeComponent</text>
</g>
<!-- ChangeIdNodeComponent&#45;&gt;AppModule -->
<g id="edge10" class="edge">
<title>ChangeIdNodeComponent&#45;&gt;AppModule</title>
<path fill="none" stroke="black" d="M3475,-122.02C3475,-139.37 3475,-163 3475,-163 3475,-163 2552.85,-163 2552.85,-163"/>
<polygon fill="black" stroke="black" points="2552.85,-159.5 2542.85,-163 2552.85,-166.5 2552.85,-159.5"/>
</g>
<!-- ChangeColorComponent -->
<g id="node11" class="node">
<title>ChangeColorComponent</title>
<polygon fill="#ffffb3" stroke="black" points="3373.99,-122 3218.01,-122 3218.01,-86 3373.99,-86 3373.99,-122"/>
<text text-anchor="middle" x="3296" y="-99.8" font-family="Times,serif" font-size="14.00">ChangeColorComponent</text>
</g>
<!-- ChangeColorComponent&#45;&gt;AppModule -->
<g id="edge11" class="edge">
<title>ChangeColorComponent&#45;&gt;AppModule</title>
<path fill="none" stroke="black" d="M3296,-122.04C3296,-138.73 3296,-161 3296,-161 3296,-161 2552.9,-161 2552.9,-161"/>
<polygon fill="black" stroke="black" points="2552.9,-157.5 2542.9,-161 2552.9,-164.5 2552.9,-157.5"/>
</g>
<!-- AddNodeComponent -->
<g id="node12" class="node">
<title>AddNodeComponent</title>
<polygon fill="#ffffb3" stroke="black" points="3199.76,-122 3064.24,-122 3064.24,-86 3199.76,-86 3199.76,-122"/>
<text text-anchor="middle" x="3132" y="-99.8" font-family="Times,serif" font-size="14.00">AddNodeComponent</text>
</g>
<!-- AddNodeComponent&#45;&gt;AppModule -->
<g id="edge12" class="edge">
<title>AddNodeComponent&#45;&gt;AppModule</title>
<path fill="none" stroke="black" d="M3132,-122.01C3132,-138.05 3132,-159 3132,-159 3132,-159 2552.89,-159 2552.89,-159"/>
<polygon fill="black" stroke="black" points="2552.89,-155.5 2542.89,-159 2552.89,-162.5 2552.89,-155.5"/>
</g>
<!-- ChangeSizeScreenComponent -->
<g id="node13" class="node">
<title>ChangeSizeScreenComponent</title>
<polygon fill="#ffffb3" stroke="black" points="3046.29,-122 2859.71,-122 2859.71,-86 3046.29,-86 3046.29,-122"/>
<text text-anchor="middle" x="2953" y="-99.8" font-family="Times,serif" font-size="14.00">ChangeSizeScreenComponent</text>
</g>
<!-- ChangeSizeScreenComponent&#45;&gt;AppModule -->
<g id="edge13" class="edge">
<title>ChangeSizeScreenComponent&#45;&gt;AppModule</title>
<path fill="none" stroke="black" d="M2953,-122.19C2953,-137.18 2953,-156 2953,-156 2953,-156 2552.71,-156 2552.71,-156"/>
<polygon fill="black" stroke="black" points="2552.71,-152.5 2542.71,-156 2552.71,-159.5 2552.71,-152.5"/>
</g>
<!-- GrapheFromMatrixAdjaComponent -->
<g id="node14" class="node">
<title>GrapheFromMatrixAdjaComponent</title>
<polygon fill="#ffffb3" stroke="black" points="2842.18,-122 2623.82,-122 2623.82,-86 2842.18,-86 2842.18,-122"/>
<text text-anchor="middle" x="2733" y="-99.8" font-family="Times,serif" font-size="14.00">GrapheFromMatrixAdjaComponent</text>
</g>
<!-- GrapheFromMatrixAdjaComponent&#45;&gt;AppModule -->
<g id="edge14" class="edge">
<title>GrapheFromMatrixAdjaComponent&#45;&gt;AppModule</title>
<path fill="none" stroke="black" d="M2733,-122.05C2733,-136.37 2733,-154 2733,-154 2733,-154 2552.74,-154 2552.74,-154"/>
<polygon fill="black" stroke="black" points="2552.74,-150.5 2542.74,-154 2552.74,-157.5 2552.74,-150.5"/>
</g>
<!-- GrapheFromEdgesListComponent -->
<g id="node15" class="node">
<title>GrapheFromEdgesListComponent</title>
<polygon fill="#ffffb3" stroke="black" points="2605.35,-122 2396.65,-122 2396.65,-86 2605.35,-86 2605.35,-122"/>
<text text-anchor="middle" x="2501" y="-99.8" font-family="Times,serif" font-size="14.00">GrapheFromEdgesListComponent</text>
</g>
<!-- GrapheFromEdgesListComponent&#45;&gt;AppModule -->
<g id="edge15" class="edge">
<title>GrapheFromEdgesListComponent&#45;&gt;AppModule</title>
<path fill="none" stroke="black" d="M2501,-122.11C2501,-122.11 2501,-140.99 2501,-140.99"/>
<polygon fill="black" stroke="black" points="2497.5,-140.99 2501,-150.99 2504.5,-140.99 2497.5,-140.99"/>
</g>
<!-- RemoveEdgeComponent -->
<g id="node16" class="node">
<title>RemoveEdgeComponent</title>
<polygon fill="#ffffb3" stroke="black" points="2378.26,-122 2221.74,-122 2221.74,-86 2378.26,-86 2378.26,-122"/>
<text text-anchor="middle" x="2300" y="-99.8" font-family="Times,serif" font-size="14.00">RemoveEdgeComponent</text>
</g>
<!-- RemoveEdgeComponent&#45;&gt;AppModule -->
<g id="edge16" class="edge">
<title>RemoveEdgeComponent&#45;&gt;AppModule</title>
<path fill="none" stroke="black" d="M2300,-122.05C2300,-136.37 2300,-154 2300,-154 2300,-154 2448.86,-154 2448.86,-154"/>
<polygon fill="black" stroke="black" points="2448.86,-157.5 2458.86,-154 2448.86,-150.5 2448.86,-157.5"/>
</g>
<!-- RemoveNodeComponent -->
<g id="node17" class="node">
<title>RemoveNodeComponent</title>
<polygon fill="#ffffb3" stroke="black" points="2203.31,-122 2044.69,-122 2044.69,-86 2203.31,-86 2203.31,-122"/>
<text text-anchor="middle" x="2124" y="-99.8" font-family="Times,serif" font-size="14.00">RemoveNodeComponent</text>
</g>
<!-- RemoveNodeComponent&#45;&gt;AppModule -->
<g id="edge17" class="edge">
<title>RemoveNodeComponent&#45;&gt;AppModule</title>
<path fill="none" stroke="black" d="M2124,-122.19C2124,-137.18 2124,-156 2124,-156 2124,-156 2449.21,-156 2449.21,-156"/>
<polygon fill="black" stroke="black" points="2449.21,-159.5 2459.21,-156 2449.21,-152.5 2449.21,-159.5"/>
</g>
<!-- EnumerationNodeComponent -->
<g id="node18" class="node">
<title>EnumerationNodeComponent</title>
<polygon fill="#ffffb3" stroke="black" points="2026.97,-122 1843.03,-122 1843.03,-86 2026.97,-86 2026.97,-122"/>
<text text-anchor="middle" x="1935" y="-99.8" font-family="Times,serif" font-size="14.00">EnumerationNodeComponent</text>
</g>
<!-- EnumerationNodeComponent&#45;&gt;AppModule -->
<g id="edge18" class="edge">
<title>EnumerationNodeComponent&#45;&gt;AppModule</title>
<path fill="none" stroke="black" d="M1935,-122.01C1935,-138.05 1935,-159 1935,-159 1935,-159 2448.92,-159 2448.92,-159"/>
<polygon fill="black" stroke="black" points="2448.92,-162.5 2458.92,-159 2448.92,-155.5 2448.92,-162.5"/>
</g>
<!-- AppComponent  -->
<g id="node27" class="node">
<title>AppComponent </title>
<polygon fill="#80b1d3" stroke="black" points="2555.44,-252 2446.56,-252 2446.56,-216 2555.44,-216 2555.44,-252"/>
<text text-anchor="middle" x="2501" y="-229.8" font-family="Times,serif" font-size="14.00">AppComponent </text>
</g>
<!-- AppModule&#45;&gt;AppComponent  -->
<g id="edge26" class="edge">
<title>AppModule&#45;&gt;AppComponent </title>
<path fill="none" stroke="black" stroke-dasharray="1,5" d="M2501,-187.11C2501,-187.11 2501,-205.99 2501,-205.99"/>
<polygon fill="black" stroke="black" points="2497.5,-205.99 2501,-215.99 2504.5,-205.99 2497.5,-205.99"/>
</g>
<!-- BrowserModule -->
<g id="node20" class="node">
<title>BrowserModule</title>
<polygon fill="#8dd3c7" stroke="black" points="1819.47,-122 1816.47,-126 1795.47,-126 1792.47,-122 1712.53,-122 1712.53,-86 1819.47,-86 1819.47,-122"/>
<text text-anchor="middle" x="1766" y="-99.8" font-family="Times,serif" font-size="14.00">BrowserModule</text>
</g>
<!-- BrowserModule&#45;&gt;AppModule -->
<g id="edge19" class="edge">
<title>BrowserModule&#45;&gt;AppModule</title>
<path fill="none" stroke="black" d="M1766,-122.04C1766,-138.73 1766,-161 1766,-161 1766,-161 2449.11,-161 2449.11,-161"/>
<polygon fill="black" stroke="black" points="2449.11,-164.5 2459.11,-161 2449.11,-157.5 2449.11,-164.5"/>
</g>
<!-- AppRoutingModule -->
<g id="node21" class="node">
<title>AppRoutingModule</title>
<polygon fill="#8dd3c7" stroke="black" points="1694.27,-122 1691.27,-126 1670.27,-126 1667.27,-122 1565.73,-122 1565.73,-86 1694.27,-86 1694.27,-122"/>
<text text-anchor="middle" x="1630" y="-99.8" font-family="Times,serif" font-size="14.00">AppRoutingModule</text>
</g>
<!-- AppRoutingModule&#45;&gt;AppModule -->
<g id="edge20" class="edge">
<title>AppRoutingModule&#45;&gt;AppModule</title>
<path fill="none" stroke="black" d="M1630,-122.02C1630,-139.37 1630,-163 1630,-163 1630,-163 2449.28,-163 2449.28,-163"/>
<polygon fill="black" stroke="black" points="2449.28,-166.5 2459.28,-163 2449.28,-159.5 2449.28,-166.5"/>
</g>
<!-- FormsModule -->
<g id="node22" class="node">
<title>FormsModule</title>
<polygon fill="#8dd3c7" stroke="black" points="1547.83,-122 1544.83,-126 1523.83,-126 1520.83,-122 1452.17,-122 1452.17,-86 1547.83,-86 1547.83,-122"/>
<text text-anchor="middle" x="1500" y="-99.8" font-family="Times,serif" font-size="14.00">FormsModule</text>
</g>
<!-- FormsModule&#45;&gt;AppModule -->
<g id="edge21" class="edge">
<title>FormsModule&#45;&gt;AppModule</title>
<path fill="none" stroke="black" d="M1500,-122.27C1500,-140.56 1500,-166 1500,-166 1500,-166 2449.26,-166 2449.26,-166"/>
<polygon fill="black" stroke="black" points="2449.26,-169.5 2459.26,-166 2449.26,-162.5 2449.26,-169.5"/>
</g>
<!-- HttpClientModule -->
<g id="node23" class="node">
<title>HttpClientModule</title>
<polygon fill="#8dd3c7" stroke="black" points="1434.16,-122 1431.16,-126 1410.16,-126 1407.16,-122 1315.84,-122 1315.84,-86 1434.16,-86 1434.16,-122"/>
<text text-anchor="middle" x="1375" y="-99.8" font-family="Times,serif" font-size="14.00">HttpClientModule</text>
</g>
<!-- HttpClientModule&#45;&gt;AppModule -->
<g id="edge22" class="edge">
<title>HttpClientModule&#45;&gt;AppModule</title>
<path fill="none" stroke="black" d="M1375,-122.17C1375,-141.09 1375,-168 1375,-168 1375,-168 2449.25,-168 2449.25,-168"/>
<polygon fill="black" stroke="black" points="2449.25,-171.5 2459.25,-168 2449.25,-164.5 2449.25,-171.5"/>
</g>
<!-- TranslateModule.forRoot(args) -->
<g id="node24" class="node">
<title>TranslateModule.forRoot(args)</title>
<polygon fill="#8dd3c7" stroke="black" points="1297.82,-122 1294.82,-126 1273.82,-126 1270.82,-122 1106.18,-122 1106.18,-86 1297.82,-86 1297.82,-122"/>
<text text-anchor="middle" x="1202" y="-99.8" font-family="Times,serif" font-size="14.00">TranslateModule.forRoot(args)</text>
</g>
<!-- TranslateModule.forRoot(args)&#45;&gt;AppModule -->
<g id="edge23" class="edge">
<title>TranslateModule.forRoot(args)&#45;&gt;AppModule</title>
<path fill="none" stroke="black" d="M1202,-122.31C1202,-142.15 1202,-171 1202,-171 1202,-171 2449.25,-171 2449.25,-171"/>
<polygon fill="black" stroke="black" points="2449.25,-174.5 2459.25,-171 2449.25,-167.5 2449.25,-174.5"/>
</g>
<!-- CommonModule -->
<g id="node25" class="node">
<title>CommonModule</title>
<polygon fill="#8dd3c7" stroke="black" points="1088.67,-122 1085.67,-126 1064.67,-126 1061.67,-122 977.33,-122 977.33,-86 1088.67,-86 1088.67,-122"/>
<text text-anchor="middle" x="1033" y="-99.8" font-family="Times,serif" font-size="14.00">CommonModule</text>
</g>
<!-- CommonModule&#45;&gt;AppModule -->
<g id="edge24" class="edge">
<title>CommonModule&#45;&gt;AppModule</title>
<path fill="none" stroke="black" d="M1033,-122.13C1033,-142.57 1033,-173 1033,-173 1033,-173 2449.04,-173 2449.04,-173"/>
<polygon fill="black" stroke="black" points="2449.04,-176.5 2459.04,-173 2449.04,-169.5 2449.04,-176.5"/>
</g>
<!-- ServiceWorkerModule.register(args) -->
<g id="node26" class="node">
<title>ServiceWorkerModule.register(args)</title>
<polygon fill="#8dd3c7" stroke="black" points="959.4,-122 956.4,-126 935.4,-126 932.4,-122 736.6,-122 736.6,-86 959.4,-86 959.4,-122"/>
<text text-anchor="middle" x="848" y="-99.8" font-family="Times,serif" font-size="14.00">ServiceWorkerModule.register(args)</text>
</g>
<!-- ServiceWorkerModule.register(args)&#45;&gt;AppModule -->
<g id="edge25" class="edge">
<title>ServiceWorkerModule.register(args)&#45;&gt;AppModule</title>
<path fill="none" stroke="black" d="M848,-122.28C848,-143.32 848,-175 848,-175 848,-175 2449.31,-175 2449.31,-175"/>
<polygon fill="black" stroke="black" points="2449.31,-178.5 2459.31,-175 2449.31,-171.5 2449.31,-178.5"/>
</g>
<!-- GrapheService -->
<g id="node28" class="node">
<title>GrapheService</title>
<ellipse fill="#fdb462" stroke="black" cx="645" cy="-104" rx="68.32" ry="18"/>
<text text-anchor="middle" x="645" y="-99.8" font-family="Times,serif" font-size="14.00">GrapheService</text>
</g>
<!-- GrapheService&#45;&gt;AppModule -->
<g id="edge27" class="edge">
<title>GrapheService&#45;&gt;AppModule</title>
<path fill="none" stroke="black" d="M645,-122.29C645,-144.21 645,-178 645,-178 645,-178 2449.19,-178 2449.19,-178"/>
<polygon fill="black" stroke="black" points="2449.19,-181.5 2459.19,-178 2449.19,-174.5 2449.19,-181.5"/>
</g>
<!-- AlgorithmService -->
<g id="node29" class="node">
<title>AlgorithmService</title>
<ellipse fill="#fdb462" stroke="black" cx="478" cy="-104" rx="80.45" ry="18"/>
<text text-anchor="middle" x="478" y="-99.8" font-family="Times,serif" font-size="14.00">AlgorithmService</text>
</g>
<!-- AlgorithmService&#45;&gt;AppModule -->
<g id="edge28" class="edge">
<title>AlgorithmService&#45;&gt;AppModule</title>
<path fill="none" stroke="black" d="M478,-122.01C478,-144.49 478,-180 478,-180 478,-180 2449.21,-180 2449.21,-180"/>
<polygon fill="black" stroke="black" points="2449.21,-183.5 2459.21,-180 2449.21,-176.5 2449.21,-183.5"/>
</g>
<!-- SaveUploadService -->
<g id="node30" class="node">
<title>SaveUploadService</title>
<ellipse fill="#fdb462" stroke="black" cx="293" cy="-104" rx="87.38" ry="18"/>
<text text-anchor="middle" x="293" y="-99.8" font-family="Times,serif" font-size="14.00">SaveUploadService</text>
</g>
<!-- SaveUploadService&#45;&gt;AppModule -->
<g id="edge29" class="edge">
<title>SaveUploadService&#45;&gt;AppModule</title>
<path fill="none" stroke="black" d="M293,-122.32C293,-145.66 293,-183 293,-183 293,-183 2448.86,-183 2448.86,-183"/>
<polygon fill="black" stroke="black" points="2448.86,-186.5 2458.86,-183 2448.86,-179.5 2448.86,-186.5"/>
</g>
<!-- DarkModeService -->
<g id="node31" class="node">
<title>DarkModeService</title>
<ellipse fill="#fdb462" stroke="black" cx="106" cy="-104" rx="81.64" ry="18"/>
<text text-anchor="middle" x="106" y="-99.8" font-family="Times,serif" font-size="14.00">DarkModeService</text>
</g>
<!-- DarkModeService&#45;&gt;AppModule -->
<g id="edge30" class="edge">
<title>DarkModeService&#45;&gt;AppModule</title>
<path fill="none" stroke="black" d="M106,-122.38C106,-146.28 106,-185 106,-185 106,-185 2449.18,-185 2449.18,-185"/>
<polygon fill="black" stroke="black" points="2449.18,-188.5 2459.18,-185 2449.18,-181.5 2449.18,-188.5"/>
</g>
</g>
</svg>
