<?xml version="1.0" encoding="UTF-8" standalone="no"?>
<!DOCTYPE svg PUBLIC "-//W3C//DTD SVG 1.1//EN"
 "http://www.w3.org/Graphics/SVG/1.1/DTD/svg11.dtd">
<!-- Generated by graphviz version 2.47.0 (20210316.0004)
 -->
<!-- Title: dependencies Pages: 1 -->
<svg width="4692pt" height="284pt"
 viewBox="0.00 0.00 4692.00 284.00" xmlns="http://www.w3.org/2000/svg" xmlns:xlink="http://www.w3.org/1999/xlink">
<g id="graph0" class="graph" transform="scale(1 1) rotate(0) translate(4 280)">
<title>dependencies</title>
<polygon fill="white" stroke="transparent" points="-4,4 -4,-280 4688,-280 4688,4 -4,4"/>
<text text-anchor="start" x="2321.01" y="-42.4" font-family="Times-12" font-weight="bold" font-size="14.00">Legend</text>
<polygon fill="#ffffb3" stroke="transparent" points="2108,-10 2108,-30 2128,-30 2128,-10 2108,-10"/>
<text text-anchor="start" x="2131.63" y="-15.4" font-family="Times-12" font-size="14.00"> &#160;Declarations</text>
<polygon fill="#8dd3c7" stroke="transparent" points="2221,-10 2221,-30 2241,-30 2241,-10 2221,-10"/>
<text text-anchor="start" x="2244.73" y="-15.4" font-family="Times-12" font-size="14.00"> &#160;Module</text>
<polygon fill="#80b1d3" stroke="transparent" points="2307,-10 2307,-30 2327,-30 2327,-10 2307,-10"/>
<text text-anchor="start" x="2330.78" y="-15.4" font-family="Times-12" font-size="14.00"> &#160;Bootstrap</text>
<polygon fill="#fdb462" stroke="transparent" points="2404,-10 2404,-30 2424,-30 2424,-10 2404,-10"/>
<text text-anchor="start" x="2427.67" y="-15.4" font-family="Times-12" font-size="14.00"> &#160;Providers</text>
<polygon fill="#fb8072" stroke="transparent" points="2500,-10 2500,-30 2520,-30 2520,-10 2500,-10"/>
<text text-anchor="start" x="2523.73" y="-15.4" font-family="Times-12" font-size="14.00"> &#160;Exports</text>
<g id="clust1" class="cluster">
<title>cluster_AppModule</title>
<polygon fill="none" stroke="black" stroke-dasharray="1,5" points="8,-70 8,-268 4676,-268 4676,-70 8,-70"/>
</g>
<g id="clust22" class="cluster">
<title>cluster_AppModule_imports</title>
<polygon fill="none" stroke="black" points="3810,-78 3810,-130 4668,-130 4668,-78 3810,-78"/>
</g>
<g id="clust25" class="cluster">
<title>cluster_AppModule_providers</title>
<polygon fill="none" stroke="black" points="3097,-78 3097,-130 3802,-130 3802,-78 3097,-78"/>
</g>
<g id="clust24" class="cluster">
<title>cluster_AppModule_bootstrap</title>
<polygon fill="none" stroke="black" points="2403,-208 2403,-260 2527,-260 2527,-208 2403,-208"/>
</g>
<g id="clust2" class="cluster">
<title>cluster_AppModule_declarations</title>
<polygon fill="none" stroke="black" points="16,-78 16,-130 3089,-130 3089,-78 16,-78"/>
</g>
<!-- AppComponent -->
<g id="node1" class="node">
<title>AppComponent</title>
<polygon fill="#ffffb3" stroke="black" points="3080.94,-122 2975.06,-122 2975.06,-86 3080.94,-86 3080.94,-122"/>
<text text-anchor="middle" x="3028" y="-99.8" font-family="Times,serif" font-size="14.00">AppComponent</text>
</g>
<!-- AppModule -->
<g id="node20" class="node">
<title>AppModule</title>
<polygon fill="#8dd3c7" stroke="black" points="2506.66,-187 2503.66,-191 2482.66,-191 2479.66,-187 2423.34,-187 2423.34,-151 2506.66,-151 2506.66,-187"/>
<text text-anchor="middle" x="2465" y="-164.8" font-family="Times,serif" font-size="14.00">AppModule</text>
</g>
<!-- AppComponent&#45;&gt;AppModule -->
<g id="edge1" class="edge">
<title>AppComponent&#45;&gt;AppModule</title>
<path fill="none" stroke="black" d="M3028,-122.04C3028,-138.73 3028,-161 3028,-161 3028,-161 2516.86,-161 2516.86,-161"/>
<polygon fill="black" stroke="black" points="2516.86,-157.5 2506.86,-161 2516.86,-164.5 2516.86,-157.5"/>
</g>
<!-- HeaderComponent -->
<g id="node2" class="node">
<title>HeaderComponent</title>
<polygon fill="#ffffb3" stroke="black" points="2956.74,-122 2835.26,-122 2835.26,-86 2956.74,-86 2956.74,-122"/>
<text text-anchor="middle" x="2896" y="-99.8" font-family="Times,serif" font-size="14.00">HeaderComponent</text>
</g>
<!-- HeaderComponent&#45;&gt;AppModule -->
<g id="edge2" class="edge">
<title>HeaderComponent&#45;&gt;AppModule</title>
<path fill="none" stroke="black" d="M2896,-122.01C2896,-138.05 2896,-159 2896,-159 2896,-159 2516.72,-159 2516.72,-159"/>
<polygon fill="black" stroke="black" points="2516.72,-155.5 2506.72,-159 2516.72,-162.5 2516.72,-155.5"/>
</g>
<!-- ScreenboxComponent -->
<g id="node3" class="node">
<title>ScreenboxComponent</title>
<polygon fill="#ffffb3" stroke="black" points="2817.42,-122 2676.58,-122 2676.58,-86 2817.42,-86 2817.42,-122"/>
<text text-anchor="middle" x="2747" y="-99.8" font-family="Times,serif" font-size="14.00">ScreenboxComponent</text>
</g>
<!-- ScreenboxComponent&#45;&gt;AppModule -->
<g id="edge3" class="edge">
<title>ScreenboxComponent&#45;&gt;AppModule</title>
<path fill="none" stroke="black" d="M2747,-122.19C2747,-137.18 2747,-156 2747,-156 2747,-156 2516.91,-156 2516.91,-156"/>
<polygon fill="black" stroke="black" points="2516.91,-152.5 2506.91,-156 2516.91,-159.5 2516.91,-152.5"/>
</g>
<!-- FooterComponent -->
<g id="node4" class="node">
<title>FooterComponent</title>
<polygon fill="#ffffb3" stroke="black" points="2658.88,-122 2541.12,-122 2541.12,-86 2658.88,-86 2658.88,-122"/>
<text text-anchor="middle" x="2600" y="-99.8" font-family="Times,serif" font-size="14.00">FooterComponent</text>
</g>
<!-- FooterComponent&#45;&gt;AppModule -->
<g id="edge4" class="edge">
<title>FooterComponent&#45;&gt;AppModule</title>
<path fill="none" stroke="black" d="M2600,-122.05C2600,-136.37 2600,-154 2600,-154 2600,-154 2516.97,-154 2516.97,-154"/>
<polygon fill="black" stroke="black" points="2516.97,-150.5 2506.97,-154 2516.97,-157.5 2516.97,-150.5"/>
</g>
<!-- AboutComponent -->
<g id="node5" class="node">
<title>AboutComponent</title>
<polygon fill="#ffffb3" stroke="black" points="2523.33,-122 2406.67,-122 2406.67,-86 2523.33,-86 2523.33,-122"/>
<text text-anchor="middle" x="2465" y="-99.8" font-family="Times,serif" font-size="14.00">AboutComponent</text>
</g>
<!-- AboutComponent&#45;&gt;AppModule -->
<g id="edge5" class="edge">
<title>AboutComponent&#45;&gt;AppModule</title>
<path fill="none" stroke="black" d="M2465,-122.11C2465,-122.11 2465,-140.99 2465,-140.99"/>
<polygon fill="black" stroke="black" points="2461.5,-140.99 2465,-150.99 2468.5,-140.99 2461.5,-140.99"/>
</g>
<!-- ContactComponent -->
<g id="node6" class="node">
<title>ContactComponent</title>
<polygon fill="#ffffb3" stroke="black" points="2388.38,-122 2263.62,-122 2263.62,-86 2388.38,-86 2388.38,-122"/>
<text text-anchor="middle" x="2326" y="-99.8" font-family="Times,serif" font-size="14.00">ContactComponent</text>
</g>
<!-- ContactComponent&#45;&gt;AppModule -->
<g id="edge6" class="edge">
<title>ContactComponent&#45;&gt;AppModule</title>
<path fill="none" stroke="black" d="M2326,-122.05C2326,-136.37 2326,-154 2326,-154 2326,-154 2413.3,-154 2413.3,-154"/>
<polygon fill="black" stroke="black" points="2413.3,-157.5 2423.3,-154 2413.3,-150.5 2413.3,-157.5"/>
</g>
<!-- InfoComponent -->
<g id="node7" class="node">
<title>InfoComponent</title>
<polygon fill="#ffffb3" stroke="black" points="2245.15,-122 2140.85,-122 2140.85,-86 2245.15,-86 2245.15,-122"/>
<text text-anchor="middle" x="2193" y="-99.8" font-family="Times,serif" font-size="14.00">InfoComponent</text>
</g>
<!-- InfoComponent&#45;&gt;AppModule -->
<g id="edge7" class="edge">
<title>InfoComponent&#45;&gt;AppModule</title>
<path fill="none" stroke="black" d="M2193,-122.19C2193,-137.18 2193,-156 2193,-156 2193,-156 2413.1,-156 2413.1,-156"/>
<polygon fill="black" stroke="black" points="2413.1,-159.5 2423.1,-156 2413.1,-152.5 2413.1,-159.5"/>
</g>
<!-- MessageComponent -->
<g id="node8" class="node">
<title>MessageComponent</title>
<polygon fill="#ffffb3" stroke="black" points="2123.31,-122 1992.69,-122 1992.69,-86 2123.31,-86 2123.31,-122"/>
<text text-anchor="middle" x="2058" y="-99.8" font-family="Times,serif" font-size="14.00">MessageComponent</text>
</g>
<!-- MessageComponent&#45;&gt;AppModule -->
<g id="edge8" class="edge">
<title>MessageComponent&#45;&gt;AppModule</title>
<path fill="none" stroke="black" d="M2058,-122.01C2058,-138.05 2058,-159 2058,-159 2058,-159 2412.98,-159 2412.98,-159"/>
<polygon fill="black" stroke="black" points="2412.98,-162.5 2422.98,-159 2412.98,-155.5 2412.98,-162.5"/>
</g>
<!-- ScreenComponent -->
<g id="node9" class="node">
<title>ScreenComponent</title>
<polygon fill="#ffffb3" stroke="black" points="1974.92,-122 1855.08,-122 1855.08,-86 1974.92,-86 1974.92,-122"/>
<text text-anchor="middle" x="1915" y="-99.8" font-family="Times,serif" font-size="14.00">ScreenComponent</text>
</g>
<!-- ScreenComponent&#45;&gt;AppModule -->
<g id="edge9" class="edge">
<title>ScreenComponent&#45;&gt;AppModule</title>
<path fill="none" stroke="black" d="M1915,-122.04C1915,-138.73 1915,-161 1915,-161 1915,-161 2413.21,-161 2413.21,-161"/>
<polygon fill="black" stroke="black" points="2413.21,-164.5 2423.21,-161 2413.21,-157.5 2413.21,-164.5"/>
</g>
<!-- AddWeightedEdgeComponent -->
<g id="node10" class="node">
<title>AddWeightedEdgeComponent</title>
<polygon fill="#ffffb3" stroke="black" points="1837.13,-122 1648.87,-122 1648.87,-86 1837.13,-86 1837.13,-122"/>
<text text-anchor="middle" x="1743" y="-99.8" font-family="Times,serif" font-size="14.00">AddWeightedEdgeComponent</text>
</g>
<!-- AddWeightedEdgeComponent&#45;&gt;AppModule -->
<g id="edge10" class="edge">
<title>AddWeightedEdgeComponent&#45;&gt;AppModule</title>
<path fill="none" stroke="black" d="M1743,-122.02C1743,-139.37 1743,-163 1743,-163 1743,-163 2413.33,-163 2413.33,-163"/>
<polygon fill="black" stroke="black" points="2413.33,-166.5 2423.33,-163 2413.33,-159.5 2413.33,-166.5"/>
</g>
<!-- MatrixComponent -->
<g id="node11" class="node">
<title>MatrixComponent</title>
<polygon fill="#ffffb3" stroke="black" points="1630.93,-122 1511.07,-122 1511.07,-86 1630.93,-86 1630.93,-122"/>
<text text-anchor="middle" x="1571" y="-99.8" font-family="Times,serif" font-size="14.00">MatrixComponent</text>
</g>
<!-- MatrixComponent&#45;&gt;AppModule -->
<g id="edge11" class="edge">
<title>MatrixComponent&#45;&gt;AppModule</title>
<path fill="none" stroke="black" d="M1571,-122.27C1571,-140.56 1571,-166 1571,-166 1571,-166 2413.08,-166 2413.08,-166"/>
<polygon fill="black" stroke="black" points="2413.08,-169.5 2423.08,-166 2413.08,-162.5 2413.08,-169.5"/>
</g>
<!-- SelectComponent -->
<g id="node12" class="node">
<title>SelectComponent</title>
<polygon fill="#ffffb3" stroke="black" points="1493.54,-122 1378.46,-122 1378.46,-86 1493.54,-86 1493.54,-122"/>
<text text-anchor="middle" x="1436" y="-99.8" font-family="Times,serif" font-size="14.00">SelectComponent</text>
</g>
<!-- SelectComponent&#45;&gt;AppModule -->
<g id="edge12" class="edge">
<title>SelectComponent&#45;&gt;AppModule</title>
<path fill="none" stroke="black" d="M1436,-122.17C1436,-141.09 1436,-168 1436,-168 1436,-168 2413.07,-168 2413.07,-168"/>
<polygon fill="black" stroke="black" points="2413.07,-171.5 2423.07,-168 2413.07,-164.5 2413.07,-171.5"/>
</g>
<!-- ChangeIdNodeComponent -->
<g id="node13" class="node">
<title>ChangeIdNodeComponent</title>
<polygon fill="#ffffb3" stroke="black" points="1360.08,-122 1193.92,-122 1193.92,-86 1360.08,-86 1360.08,-122"/>
<text text-anchor="middle" x="1277" y="-99.8" font-family="Times,serif" font-size="14.00">ChangeIdNodeComponent</text>
</g>
<!-- ChangeIdNodeComponent&#45;&gt;AppModule -->
<g id="edge13" class="edge">
<title>ChangeIdNodeComponent&#45;&gt;AppModule</title>
<path fill="none" stroke="black" d="M1277,-122.31C1277,-142.15 1277,-171 1277,-171 1277,-171 2413.07,-171 2413.07,-171"/>
<polygon fill="black" stroke="black" points="2413.07,-174.5 2423.07,-171 2413.07,-167.5 2413.07,-174.5"/>
</g>
<!-- ChangeColorComponent -->
<g id="node14" class="node">
<title>ChangeColorComponent</title>
<polygon fill="#ffffb3" stroke="black" points="1175.99,-122 1020.01,-122 1020.01,-86 1175.99,-86 1175.99,-122"/>
<text text-anchor="middle" x="1098" y="-99.8" font-family="Times,serif" font-size="14.00">ChangeColorComponent</text>
</g>
<!-- ChangeColorComponent&#45;&gt;AppModule -->
<g id="edge14" class="edge">
<title>ChangeColorComponent&#45;&gt;AppModule</title>
<path fill="none" stroke="black" d="M1098,-122.13C1098,-142.57 1098,-173 1098,-173 1098,-173 2413.34,-173 2413.34,-173"/>
<polygon fill="black" stroke="black" points="2413.34,-176.5 2423.34,-173 2413.34,-169.5 2413.34,-176.5"/>
</g>
<!-- AddNodeComponent -->
<g id="node15" class="node">
<title>AddNodeComponent</title>
<polygon fill="#ffffb3" stroke="black" points="1001.76,-122 866.24,-122 866.24,-86 1001.76,-86 1001.76,-122"/>
<text text-anchor="middle" x="934" y="-99.8" font-family="Times,serif" font-size="14.00">AddNodeComponent</text>
</g>
<!-- AddNodeComponent&#45;&gt;AppModule -->
<g id="edge15" class="edge">
<title>AddNodeComponent&#45;&gt;AppModule</title>
<path fill="none" stroke="black" d="M934,-122.28C934,-143.32 934,-175 934,-175 934,-175 2413.26,-175 2413.26,-175"/>
<polygon fill="black" stroke="black" points="2413.26,-178.5 2423.26,-175 2413.26,-171.5 2413.26,-178.5"/>
</g>
<!-- ChangeSizeScreenComponent -->
<g id="node16" class="node">
<title>ChangeSizeScreenComponent</title>
<polygon fill="#ffffb3" stroke="black" points="848.29,-122 661.71,-122 661.71,-86 848.29,-86 848.29,-122"/>
<text text-anchor="middle" x="755" y="-99.8" font-family="Times,serif" font-size="14.00">ChangeSizeScreenComponent</text>
</g>
<!-- ChangeSizeScreenComponent&#45;&gt;AppModule -->
<g id="edge16" class="edge">
<title>ChangeSizeScreenComponent&#45;&gt;AppModule</title>
<path fill="none" stroke="black" d="M755,-122.29C755,-144.21 755,-178 755,-178 755,-178 2413.15,-178 2413.15,-178"/>
<polygon fill="black" stroke="black" points="2413.15,-181.5 2423.15,-178 2413.15,-174.5 2413.15,-181.5"/>
</g>
<!-- GrapheFromMatrixAdjaComponent -->
<g id="node17" class="node">
<title>GrapheFromMatrixAdjaComponent</title>
<polygon fill="#ffffb3" stroke="black" points="644.18,-122 425.82,-122 425.82,-86 644.18,-86 644.18,-122"/>
<text text-anchor="middle" x="535" y="-99.8" font-family="Times,serif" font-size="14.00">GrapheFromMatrixAdjaComponent</text>
</g>
<!-- GrapheFromMatrixAdjaComponent&#45;&gt;AppModule -->
<g id="edge17" class="edge">
<title>GrapheFromMatrixAdjaComponent&#45;&gt;AppModule</title>
<path fill="none" stroke="black" d="M535,-122.01C535,-144.49 535,-180 535,-180 535,-180 2412.89,-180 2412.89,-180"/>
<polygon fill="black" stroke="black" points="2412.89,-183.5 2422.89,-180 2412.89,-176.5 2412.89,-183.5"/>
</g>
<!-- GrapheFromEdgesListComponent -->
<g id="node18" class="node">
<title>GrapheFromEdgesListComponent</title>
<polygon fill="#ffffb3" stroke="black" points="407.35,-122 198.65,-122 198.65,-86 407.35,-86 407.35,-122"/>
<text text-anchor="middle" x="303" y="-99.8" font-family="Times,serif" font-size="14.00">GrapheFromEdgesListComponent</text>
</g>
<!-- GrapheFromEdgesListComponent&#45;&gt;AppModule -->
<g id="edge18" class="edge">
<title>GrapheFromEdgesListComponent&#45;&gt;AppModule</title>
<path fill="none" stroke="black" d="M303,-122.32C303,-145.66 303,-183 303,-183 303,-183 2413.26,-183 2413.26,-183"/>
<polygon fill="black" stroke="black" points="2413.26,-186.5 2423.26,-183 2413.26,-179.5 2413.26,-186.5"/>
</g>
<!-- RemoveEdgeComponent -->
<g id="node19" class="node">
<title>RemoveEdgeComponent</title>
<polygon fill="#ffffb3" stroke="black" points="180.26,-122 23.74,-122 23.74,-86 180.26,-86 180.26,-122"/>
<text text-anchor="middle" x="102" y="-99.8" font-family="Times,serif" font-size="14.00">RemoveEdgeComponent</text>
</g>
<!-- RemoveEdgeComponent&#45;&gt;AppModule -->
<g id="edge19" class="edge">
<title>RemoveEdgeComponent&#45;&gt;AppModule</title>
<path fill="none" stroke="black" d="M102,-122.38C102,-146.28 102,-185 102,-185 102,-185 2413.23,-185 2413.23,-185"/>
<polygon fill="black" stroke="black" points="2413.23,-188.5 2423.23,-185 2413.23,-181.5 2413.23,-188.5"/>
</g>
<!-- AppComponent  -->
<g id="node27" class="node">
<title>AppComponent </title>
<polygon fill="#80b1d3" stroke="black" points="2519.44,-252 2410.56,-252 2410.56,-216 2519.44,-216 2519.44,-252"/>
<text text-anchor="middle" x="2465" y="-229.8" font-family="Times,serif" font-size="14.00">AppComponent </text>
</g>
<!-- AppModule&#45;&gt;AppComponent  -->
<g id="edge26" class="edge">
<title>AppModule&#45;&gt;AppComponent </title>
<path fill="none" stroke="black" stroke-dasharray="1,5" d="M2465,-187.11C2465,-187.11 2465,-205.99 2465,-205.99"/>
<polygon fill="black" stroke="black" points="2461.5,-205.99 2465,-215.99 2468.5,-205.99 2461.5,-205.99"/>
</g>
<!-- BrowserModule -->
<g id="node21" class="node">
<title>BrowserModule</title>
<polygon fill="#8dd3c7" stroke="black" points="4660.47,-122 4657.47,-126 4636.47,-126 4633.47,-122 4553.53,-122 4553.53,-86 4660.47,-86 4660.47,-122"/>
<text text-anchor="middle" x="4607" y="-99.8" font-family="Times,serif" font-size="14.00">BrowserModule</text>
</g>
<!-- BrowserModule&#45;&gt;AppModule -->
<g id="edge20" class="edge">
<title>BrowserModule&#45;&gt;AppModule</title>
<path fill="none" stroke="black" d="M4607,-122.38C4607,-146.28 4607,-185 4607,-185 4607,-185 2516.83,-185 2516.83,-185"/>
<polygon fill="black" stroke="black" points="2516.83,-181.5 2506.83,-185 2516.83,-188.5 2516.83,-181.5"/>
</g>
<!-- AppRoutingModule -->
<g id="node22" class="node">
<title>AppRoutingModule</title>
<polygon fill="#8dd3c7" stroke="black" points="4535.27,-122 4532.27,-126 4511.27,-126 4508.27,-122 4406.73,-122 4406.73,-86 4535.27,-86 4535.27,-122"/>
<text text-anchor="middle" x="4471" y="-99.8" font-family="Times,serif" font-size="14.00">AppRoutingModule</text>
</g>
<!-- AppRoutingModule&#45;&gt;AppModule -->
<g id="edge21" class="edge">
<title>AppRoutingModule&#45;&gt;AppModule</title>
<path fill="none" stroke="black" d="M4471,-122.32C4471,-145.66 4471,-183 4471,-183 4471,-183 2516.9,-183 2516.9,-183"/>
<polygon fill="black" stroke="black" points="2516.9,-179.5 2506.9,-183 2516.9,-186.5 2516.9,-179.5"/>
</g>
<!-- FormsModule -->
<g id="node23" class="node">
<title>FormsModule</title>
<polygon fill="#8dd3c7" stroke="black" points="4388.83,-122 4385.83,-126 4364.83,-126 4361.83,-122 4293.17,-122 4293.17,-86 4388.83,-86 4388.83,-122"/>
<text text-anchor="middle" x="4341" y="-99.8" font-family="Times,serif" font-size="14.00">FormsModule</text>
</g>
<!-- FormsModule&#45;&gt;AppModule -->
<g id="edge22" class="edge">
<title>FormsModule&#45;&gt;AppModule</title>
<path fill="none" stroke="black" d="M4341,-122.01C4341,-144.49 4341,-180 4341,-180 4341,-180 2516.81,-180 2516.81,-180"/>
<polygon fill="black" stroke="black" points="2516.81,-176.5 2506.81,-180 2516.81,-183.5 2516.81,-176.5"/>
</g>
<!-- HttpClientModule -->
<g id="node24" class="node">
<title>HttpClientModule</title>
<polygon fill="#8dd3c7" stroke="black" points="4275.16,-122 4272.16,-126 4251.16,-126 4248.16,-122 4156.84,-122 4156.84,-86 4275.16,-86 4275.16,-122"/>
<text text-anchor="middle" x="4216" y="-99.8" font-family="Times,serif" font-size="14.00">HttpClientModule</text>
</g>
<!-- HttpClientModule&#45;&gt;AppModule -->
<g id="edge23" class="edge">
<title>HttpClientModule&#45;&gt;AppModule</title>
<path fill="none" stroke="black" d="M4216,-122.29C4216,-144.21 4216,-178 4216,-178 4216,-178 2516.99,-178 2516.99,-178"/>
<polygon fill="black" stroke="black" points="2516.99,-174.5 2506.99,-178 2516.99,-181.5 2516.99,-174.5"/>
</g>
<!-- TranslateModule.forRoot(args) -->
<g id="node25" class="node">
<title>TranslateModule.forRoot(args)</title>
<polygon fill="#8dd3c7" stroke="black" points="4138.82,-122 4135.82,-126 4114.82,-126 4111.82,-122 3947.18,-122 3947.18,-86 4138.82,-86 4138.82,-122"/>
<text text-anchor="middle" x="4043" y="-99.8" font-family="Times,serif" font-size="14.00">TranslateModule.forRoot(args)</text>
</g>
<!-- TranslateModule.forRoot(args)&#45;&gt;AppModule -->
<g id="edge24" class="edge">
<title>TranslateModule.forRoot(args)&#45;&gt;AppModule</title>
<path fill="none" stroke="black" d="M4043,-122.28C4043,-143.32 4043,-175 4043,-175 4043,-175 2516.8,-175 2516.8,-175"/>
<polygon fill="black" stroke="black" points="2516.8,-171.5 2506.8,-175 2516.8,-178.5 2516.8,-171.5"/>
</g>
<!-- CommonModule -->
<g id="node26" class="node">
<title>CommonModule</title>
<polygon fill="#8dd3c7" stroke="black" points="3929.67,-122 3926.67,-126 3905.67,-126 3902.67,-122 3818.33,-122 3818.33,-86 3929.67,-86 3929.67,-122"/>
<text text-anchor="middle" x="3874" y="-99.8" font-family="Times,serif" font-size="14.00">CommonModule</text>
</g>
<!-- CommonModule&#45;&gt;AppModule -->
<g id="edge25" class="edge">
<title>CommonModule&#45;&gt;AppModule</title>
<path fill="none" stroke="black" d="M3874,-122.13C3874,-142.57 3874,-173 3874,-173 3874,-173 2516.79,-173 2516.79,-173"/>
<polygon fill="black" stroke="black" points="2516.79,-169.5 2506.79,-173 2516.79,-176.5 2516.79,-169.5"/>
</g>
<!-- GrapheService -->
<g id="node28" class="node">
<title>GrapheService</title>
<ellipse fill="#fdb462" stroke="black" cx="3726" cy="-104" rx="68.32" ry="18"/>
<text text-anchor="middle" x="3726" y="-99.8" font-family="Times,serif" font-size="14.00">GrapheService</text>
</g>
<!-- GrapheService&#45;&gt;AppModule -->
<g id="edge27" class="edge">
<title>GrapheService&#45;&gt;AppModule</title>
<path fill="none" stroke="black" d="M3726,-122.31C3726,-142.15 3726,-171 3726,-171 3726,-171 2516.96,-171 2516.96,-171"/>
<polygon fill="black" stroke="black" points="2516.96,-167.5 2506.96,-171 2516.96,-174.5 2516.96,-167.5"/>
</g>
<!-- AlgorithmService -->
<g id="node29" class="node">
<title>AlgorithmService</title>
<ellipse fill="#fdb462" stroke="black" cx="3559" cy="-104" rx="80.45" ry="18"/>
<text text-anchor="middle" x="3559" y="-99.8" font-family="Times,serif" font-size="14.00">AlgorithmService</text>
</g>
<!-- AlgorithmService&#45;&gt;AppModule -->
<g id="edge28" class="edge">
<title>AlgorithmService&#45;&gt;AppModule</title>
<path fill="none" stroke="black" d="M3559,-122.17C3559,-141.09 3559,-168 3559,-168 3559,-168 2516.88,-168 2516.88,-168"/>
<polygon fill="black" stroke="black" points="2516.88,-164.5 2506.88,-168 2516.88,-171.5 2516.88,-164.5"/>
</g>
<!-- SaveUploadService -->
<g id="node30" class="node">
<title>SaveUploadService</title>
<ellipse fill="#fdb462" stroke="black" cx="3374" cy="-104" rx="87.38" ry="18"/>
<text text-anchor="middle" x="3374" y="-99.8" font-family="Times,serif" font-size="14.00">SaveUploadService</text>
</g>
<!-- SaveUploadService&#45;&gt;AppModule -->
<g id="edge29" class="edge">
<title>SaveUploadService&#45;&gt;AppModule</title>
<path fill="none" stroke="black" d="M3374,-122.27C3374,-140.56 3374,-166 3374,-166 3374,-166 2516.72,-166 2516.72,-166"/>
<polygon fill="black" stroke="black" points="2516.72,-162.5 2506.72,-166 2516.72,-169.5 2516.72,-162.5"/>
</g>
<!-- DarkModeService -->
<g id="node31" class="node">
<title>DarkModeService</title>
<ellipse fill="#fdb462" stroke="black" cx="3187" cy="-104" rx="81.64" ry="18"/>
<text text-anchor="middle" x="3187" y="-99.8" font-family="Times,serif" font-size="14.00">DarkModeService</text>
</g>
<!-- DarkModeService&#45;&gt;AppModule -->
<g id="edge30" class="edge">
<title>DarkModeService&#45;&gt;AppModule</title>
<path fill="none" stroke="black" d="M3187,-122.02C3187,-139.37 3187,-163 3187,-163 3187,-163 2516.67,-163 2516.67,-163"/>
<polygon fill="black" stroke="black" points="2516.67,-159.5 2506.67,-163 2516.67,-166.5 2516.67,-159.5"/>
</g>
</g>
</svg>
