<?xml version="1.0" encoding="UTF-8" standalone="no"?>
<!DOCTYPE svg PUBLIC "-//W3C//DTD SVG 1.1//EN"
 "http://www.w3.org/Graphics/SVG/1.1/DTD/svg11.dtd">
<!-- Generated by graphviz version 2.47.0 (20210316.0004)
 -->
<!-- Title: dependencies Pages: 1 -->
<svg width="4692pt" height="284pt"
 viewBox="0.00 0.00 4692.00 284.00" xmlns="http://www.w3.org/2000/svg" xmlns:xlink="http://www.w3.org/1999/xlink">
<g id="graph0" class="graph" transform="scale(1 1) rotate(0) translate(4 280)">
<title>dependencies</title>
<polygon fill="white" stroke="transparent" points="-4,4 -4,-280 4688,-280 4688,4 -4,4"/>
<text text-anchor="start" x="2321.01" y="-42.4" font-family="Times-12" font-weight="bold" font-size="14.00">Legend</text>
<polygon fill="#ffffb3" stroke="transparent" points="2108,-10 2108,-30 2128,-30 2128,-10 2108,-10"/>
<text text-anchor="start" x="2131.63" y="-15.4" font-family="Times-12" font-size="14.00"> &#160;Declarations</text>
<polygon fill="#8dd3c7" stroke="transparent" points="2221,-10 2221,-30 2241,-30 2241,-10 2221,-10"/>
<text text-anchor="start" x="2244.73" y="-15.4" font-family="Times-12" font-size="14.00"> &#160;Module</text>
<polygon fill="#80b1d3" stroke="transparent" points="2307,-10 2307,-30 2327,-30 2327,-10 2307,-10"/>
<text text-anchor="start" x="2330.78" y="-15.4" font-family="Times-12" font-size="14.00"> &#160;Bootstrap</text>
<polygon fill="#fdb462" stroke="transparent" points="2404,-10 2404,-30 2424,-30 2424,-10 2404,-10"/>
<text text-anchor="start" x="2427.67" y="-15.4" font-family="Times-12" font-size="14.00"> &#160;Providers</text>
<polygon fill="#fb8072" stroke="transparent" points="2500,-10 2500,-30 2520,-30 2520,-10 2500,-10"/>
<text text-anchor="start" x="2523.73" y="-15.4" font-family="Times-12" font-size="14.00"> &#160;Exports</text>
<g id="clust1" class="cluster">
<title>cluster_AppModule</title>
<polygon fill="none" stroke="black" stroke-dasharray="1,5" points="8,-70 8,-268 4676,-268 4676,-70 8,-70"/>
</g>
<g id="clust2" class="cluster">
<title>cluster_AppModule_declarations</title>
<polygon fill="none" stroke="black" points="1595,-78 1595,-130 4668,-130 4668,-78 1595,-78"/>
</g>
<g id="clust22" class="cluster">
<title>cluster_AppModule_imports</title>
<polygon fill="none" stroke="black" points="729,-78 729,-130 1587,-130 1587,-78 729,-78"/>
</g>
<g id="clust24" class="cluster">
<title>cluster_AppModule_bootstrap</title>
<polygon fill="none" stroke="black" points="2451,-208 2451,-260 2575,-260 2575,-208 2451,-208"/>
</g>
<g id="clust25" class="cluster">
<title>cluster_AppModule_providers</title>
<polygon fill="none" stroke="black" points="16,-78 16,-130 721,-130 721,-78 16,-78"/>
</g>
<!-- AppComponent -->
<g id="node1" class="node">
<title>AppComponent</title>
<polygon fill="#ffffb3" stroke="black" points="4659.94,-122 4554.06,-122 4554.06,-86 4659.94,-86 4659.94,-122"/>
<text text-anchor="middle" x="4607" y="-99.8" font-family="Times,serif" font-size="14.00">AppComponent</text>
</g>
<!-- AppModule -->
<g id="node20" class="node">
<title>AppModule</title>
<polygon fill="#8dd3c7" stroke="black" points="2554.66,-187 2551.66,-191 2530.66,-191 2527.66,-187 2471.34,-187 2471.34,-151 2554.66,-151 2554.66,-187"/>
<text text-anchor="middle" x="2513" y="-164.8" font-family="Times,serif" font-size="14.00">AppModule</text>
</g>
<!-- AppComponent&#45;&gt;AppModule -->
<g id="edge1" class="edge">
<title>AppComponent&#45;&gt;AppModule</title>
<path fill="none" stroke="black" d="M4607,-122.38C4607,-146.28 4607,-185 4607,-185 4607,-185 2564.83,-185 2564.83,-185"/>
<polygon fill="black" stroke="black" points="2564.83,-181.5 2554.83,-185 2564.83,-188.5 2564.83,-181.5"/>
</g>
<!-- HeaderComponent -->
<g id="node2" class="node">
<title>HeaderComponent</title>
<polygon fill="#ffffb3" stroke="black" points="4535.74,-122 4414.26,-122 4414.26,-86 4535.74,-86 4535.74,-122"/>
<text text-anchor="middle" x="4475" y="-99.8" font-family="Times,serif" font-size="14.00">HeaderComponent</text>
</g>
<!-- HeaderComponent&#45;&gt;AppModule -->
<g id="edge2" class="edge">
<title>HeaderComponent&#45;&gt;AppModule</title>
<path fill="none" stroke="black" d="M4475,-122.32C4475,-145.66 4475,-183 4475,-183 4475,-183 2564.89,-183 2564.89,-183"/>
<polygon fill="black" stroke="black" points="2564.89,-179.5 2554.89,-183 2564.89,-186.5 2564.89,-179.5"/>
</g>
<!-- ScreenboxComponent -->
<g id="node3" class="node">
<title>ScreenboxComponent</title>
<polygon fill="#ffffb3" stroke="black" points="4396.42,-122 4255.58,-122 4255.58,-86 4396.42,-86 4396.42,-122"/>
<text text-anchor="middle" x="4326" y="-99.8" font-family="Times,serif" font-size="14.00">ScreenboxComponent</text>
</g>
<!-- ScreenboxComponent&#45;&gt;AppModule -->
<g id="edge3" class="edge">
<title>ScreenboxComponent&#45;&gt;AppModule</title>
<path fill="none" stroke="black" d="M4326,-122.01C4326,-144.49 4326,-180 4326,-180 4326,-180 2564.71,-180 2564.71,-180"/>
<polygon fill="black" stroke="black" points="2564.71,-176.5 2554.71,-180 2564.71,-183.5 2564.71,-176.5"/>
</g>
<!-- FooterComponent -->
<g id="node4" class="node">
<title>FooterComponent</title>
<polygon fill="#ffffb3" stroke="black" points="4237.88,-122 4120.12,-122 4120.12,-86 4237.88,-86 4237.88,-122"/>
<text text-anchor="middle" x="4179" y="-99.8" font-family="Times,serif" font-size="14.00">FooterComponent</text>
</g>
<!-- FooterComponent&#45;&gt;AppModule -->
<g id="edge4" class="edge">
<title>FooterComponent&#45;&gt;AppModule</title>
<path fill="none" stroke="black" d="M4179,-122.29C4179,-144.21 4179,-178 4179,-178 4179,-178 2565.02,-178 2565.02,-178"/>
<polygon fill="black" stroke="black" points="2565.02,-174.5 2555.02,-178 2565.02,-181.5 2565.02,-174.5"/>
</g>
<!-- AboutComponent -->
<g id="node5" class="node">
<title>AboutComponent</title>
<polygon fill="#ffffb3" stroke="black" points="4102.33,-122 3985.67,-122 3985.67,-86 4102.33,-86 4102.33,-122"/>
<text text-anchor="middle" x="4044" y="-99.8" font-family="Times,serif" font-size="14.00">AboutComponent</text>
</g>
<!-- AboutComponent&#45;&gt;AppModule -->
<g id="edge5" class="edge">
<title>AboutComponent&#45;&gt;AppModule</title>
<path fill="none" stroke="black" d="M4044,-122.28C4044,-143.32 4044,-175 4044,-175 4044,-175 2564.74,-175 2564.74,-175"/>
<polygon fill="black" stroke="black" points="2564.74,-171.5 2554.74,-175 2564.74,-178.5 2564.74,-171.5"/>
</g>
<!-- ContactComponent -->
<g id="node6" class="node">
<title>ContactComponent</title>
<polygon fill="#ffffb3" stroke="black" points="3967.38,-122 3842.62,-122 3842.62,-86 3967.38,-86 3967.38,-122"/>
<text text-anchor="middle" x="3905" y="-99.8" font-family="Times,serif" font-size="14.00">ContactComponent</text>
</g>
<!-- ContactComponent&#45;&gt;AppModule -->
<g id="edge6" class="edge">
<title>ContactComponent&#45;&gt;AppModule</title>
<path fill="none" stroke="black" d="M3905,-122.13C3905,-142.57 3905,-173 3905,-173 3905,-173 2564.66,-173 2564.66,-173"/>
<polygon fill="black" stroke="black" points="2564.66,-169.5 2554.66,-173 2564.66,-176.5 2564.66,-169.5"/>
</g>
<!-- InfoComponent -->
<g id="node7" class="node">
<title>InfoComponent</title>
<polygon fill="#ffffb3" stroke="black" points="3824.15,-122 3719.85,-122 3719.85,-86 3824.15,-86 3824.15,-122"/>
<text text-anchor="middle" x="3772" y="-99.8" font-family="Times,serif" font-size="14.00">InfoComponent</text>
</g>
<!-- InfoComponent&#45;&gt;AppModule -->
<g id="edge7" class="edge">
<title>InfoComponent&#45;&gt;AppModule</title>
<path fill="none" stroke="black" d="M3772,-122.31C3772,-142.15 3772,-171 3772,-171 3772,-171 2564.89,-171 2564.89,-171"/>
<polygon fill="black" stroke="black" points="2564.89,-167.5 2554.89,-171 2564.89,-174.5 2564.89,-167.5"/>
</g>
<!-- MessageComponent -->
<g id="node8" class="node">
<title>MessageComponent</title>
<polygon fill="#ffffb3" stroke="black" points="3702.31,-122 3571.69,-122 3571.69,-86 3702.31,-86 3702.31,-122"/>
<text text-anchor="middle" x="3637" y="-99.8" font-family="Times,serif" font-size="14.00">MessageComponent</text>
</g>
<!-- MessageComponent&#45;&gt;AppModule -->
<g id="edge8" class="edge">
<title>MessageComponent&#45;&gt;AppModule</title>
<path fill="none" stroke="black" d="M3637,-122.17C3637,-141.09 3637,-168 3637,-168 3637,-168 2564.67,-168 2564.67,-168"/>
<polygon fill="black" stroke="black" points="2564.67,-164.5 2554.67,-168 2564.67,-171.5 2564.67,-164.5"/>
</g>
<!-- ScreenComponent -->
<g id="node9" class="node">
<title>ScreenComponent</title>
<polygon fill="#ffffb3" stroke="black" points="3553.92,-122 3434.08,-122 3434.08,-86 3553.92,-86 3553.92,-122"/>
<text text-anchor="middle" x="3494" y="-99.8" font-family="Times,serif" font-size="14.00">ScreenComponent</text>
</g>
<!-- ScreenComponent&#45;&gt;AppModule -->
<g id="edge9" class="edge">
<title>ScreenComponent&#45;&gt;AppModule</title>
<path fill="none" stroke="black" d="M3494,-122.27C3494,-140.56 3494,-166 3494,-166 3494,-166 2564.84,-166 2564.84,-166"/>
<polygon fill="black" stroke="black" points="2564.84,-162.5 2554.84,-166 2564.84,-169.5 2564.84,-162.5"/>
</g>
<!-- AddWeightedEdgeComponent -->
<g id="node10" class="node">
<title>AddWeightedEdgeComponent</title>
<polygon fill="#ffffb3" stroke="black" points="3416.13,-122 3227.87,-122 3227.87,-86 3416.13,-86 3416.13,-122"/>
<text text-anchor="middle" x="3322" y="-99.8" font-family="Times,serif" font-size="14.00">AddWeightedEdgeComponent</text>
</g>
<!-- AddWeightedEdgeComponent&#45;&gt;AppModule -->
<g id="edge10" class="edge">
<title>AddWeightedEdgeComponent&#45;&gt;AppModule</title>
<path fill="none" stroke="black" d="M3322,-122.02C3322,-139.37 3322,-163 3322,-163 3322,-163 2564.79,-163 2564.79,-163"/>
<polygon fill="black" stroke="black" points="2564.79,-159.5 2554.79,-163 2564.79,-166.5 2564.79,-159.5"/>
</g>
<!-- MatrixComponent -->
<g id="node11" class="node">
<title>MatrixComponent</title>
<polygon fill="#ffffb3" stroke="black" points="3209.93,-122 3090.07,-122 3090.07,-86 3209.93,-86 3209.93,-122"/>
<text text-anchor="middle" x="3150" y="-99.8" font-family="Times,serif" font-size="14.00">MatrixComponent</text>
</g>
<!-- MatrixComponent&#45;&gt;AppModule -->
<g id="edge11" class="edge">
<title>MatrixComponent&#45;&gt;AppModule</title>
<path fill="none" stroke="black" d="M3150,-122.04C3150,-138.73 3150,-161 3150,-161 3150,-161 2564.8,-161 2564.8,-161"/>
<polygon fill="black" stroke="black" points="2564.8,-157.5 2554.8,-161 2564.8,-164.5 2564.8,-157.5"/>
</g>
<!-- SelectComponent -->
<g id="node12" class="node">
<title>SelectComponent</title>
<polygon fill="#ffffb3" stroke="black" points="3072.54,-122 2957.46,-122 2957.46,-86 3072.54,-86 3072.54,-122"/>
<text text-anchor="middle" x="3015" y="-99.8" font-family="Times,serif" font-size="14.00">SelectComponent</text>
</g>
<!-- SelectComponent&#45;&gt;AppModule -->
<g id="edge12" class="edge">
<title>SelectComponent&#45;&gt;AppModule</title>
<path fill="none" stroke="black" d="M3015,-122.01C3015,-138.05 3015,-159 3015,-159 3015,-159 2564.94,-159 2564.94,-159"/>
<polygon fill="black" stroke="black" points="2564.94,-155.5 2554.94,-159 2564.94,-162.5 2564.94,-155.5"/>
</g>
<!-- ChangeIdNodeComponent -->
<g id="node13" class="node">
<title>ChangeIdNodeComponent</title>
<polygon fill="#ffffb3" stroke="black" points="2939.08,-122 2772.92,-122 2772.92,-86 2939.08,-86 2939.08,-122"/>
<text text-anchor="middle" x="2856" y="-99.8" font-family="Times,serif" font-size="14.00">ChangeIdNodeComponent</text>
</g>
<!-- ChangeIdNodeComponent&#45;&gt;AppModule -->
<g id="edge13" class="edge">
<title>ChangeIdNodeComponent&#45;&gt;AppModule</title>
<path fill="none" stroke="black" d="M2856,-122.19C2856,-137.18 2856,-156 2856,-156 2856,-156 2564.72,-156 2564.72,-156"/>
<polygon fill="black" stroke="black" points="2564.72,-152.5 2554.72,-156 2564.72,-159.5 2564.72,-152.5"/>
</g>
<!-- ChangeColorComponent -->
<g id="node14" class="node">
<title>ChangeColorComponent</title>
<polygon fill="#ffffb3" stroke="black" points="2754.99,-122 2599.01,-122 2599.01,-86 2754.99,-86 2754.99,-122"/>
<text text-anchor="middle" x="2677" y="-99.8" font-family="Times,serif" font-size="14.00">ChangeColorComponent</text>
</g>
<!-- ChangeColorComponent&#45;&gt;AppModule -->
<g id="edge14" class="edge">
<title>ChangeColorComponent&#45;&gt;AppModule</title>
<path fill="none" stroke="black" d="M2677,-122.05C2677,-136.37 2677,-154 2677,-154 2677,-154 2564.81,-154 2564.81,-154"/>
<polygon fill="black" stroke="black" points="2564.81,-150.5 2554.81,-154 2564.81,-157.5 2564.81,-150.5"/>
</g>
<!-- AddNodeComponent -->
<g id="node15" class="node">
<title>AddNodeComponent</title>
<polygon fill="#ffffb3" stroke="black" points="2580.76,-122 2445.24,-122 2445.24,-86 2580.76,-86 2580.76,-122"/>
<text text-anchor="middle" x="2513" y="-99.8" font-family="Times,serif" font-size="14.00">AddNodeComponent</text>
</g>
<!-- AddNodeComponent&#45;&gt;AppModule -->
<g id="edge15" class="edge">
<title>AddNodeComponent&#45;&gt;AppModule</title>
<path fill="none" stroke="black" d="M2513,-122.11C2513,-122.11 2513,-140.99 2513,-140.99"/>
<polygon fill="black" stroke="black" points="2509.5,-140.99 2513,-150.99 2516.5,-140.99 2509.5,-140.99"/>
</g>
<!-- ChangeSizeScreenComponent -->
<g id="node16" class="node">
<title>ChangeSizeScreenComponent</title>
<polygon fill="#ffffb3" stroke="black" points="2427.29,-122 2240.71,-122 2240.71,-86 2427.29,-86 2427.29,-122"/>
<text text-anchor="middle" x="2334" y="-99.8" font-family="Times,serif" font-size="14.00">ChangeSizeScreenComponent</text>
</g>
<!-- ChangeSizeScreenComponent&#45;&gt;AppModule -->
<g id="edge16" class="edge">
<title>ChangeSizeScreenComponent&#45;&gt;AppModule</title>
<path fill="none" stroke="black" d="M2334,-122.05C2334,-136.37 2334,-154 2334,-154 2334,-154 2461.03,-154 2461.03,-154"/>
<polygon fill="black" stroke="black" points="2461.03,-157.5 2471.03,-154 2461.03,-150.5 2461.03,-157.5"/>
</g>
<!-- GrapheFromMatrixAdjaComponent -->
<g id="node17" class="node">
<title>GrapheFromMatrixAdjaComponent</title>
<polygon fill="#ffffb3" stroke="black" points="2223.18,-122 2004.82,-122 2004.82,-86 2223.18,-86 2223.18,-122"/>
<text text-anchor="middle" x="2114" y="-99.8" font-family="Times,serif" font-size="14.00">GrapheFromMatrixAdjaComponent</text>
</g>
<!-- GrapheFromMatrixAdjaComponent&#45;&gt;AppModule -->
<g id="edge17" class="edge">
<title>GrapheFromMatrixAdjaComponent&#45;&gt;AppModule</title>
<path fill="none" stroke="black" d="M2114,-122.19C2114,-137.18 2114,-156 2114,-156 2114,-156 2461.05,-156 2461.05,-156"/>
<polygon fill="black" stroke="black" points="2461.05,-159.5 2471.05,-156 2461.05,-152.5 2461.05,-159.5"/>
</g>
<!-- GrapheFromEdgesListComponent -->
<g id="node18" class="node">
<title>GrapheFromEdgesListComponent</title>
<polygon fill="#ffffb3" stroke="black" points="1986.35,-122 1777.65,-122 1777.65,-86 1986.35,-86 1986.35,-122"/>
<text text-anchor="middle" x="1882" y="-99.8" font-family="Times,serif" font-size="14.00">GrapheFromEdgesListComponent</text>
</g>
<!-- GrapheFromEdgesListComponent&#45;&gt;AppModule -->
<g id="edge18" class="edge">
<title>GrapheFromEdgesListComponent&#45;&gt;AppModule</title>
<path fill="none" stroke="black" d="M1882,-122.01C1882,-138.05 1882,-159 1882,-159 1882,-159 2461.11,-159 2461.11,-159"/>
<polygon fill="black" stroke="black" points="2461.11,-162.5 2471.11,-159 2461.11,-155.5 2461.11,-162.5"/>
</g>
<!-- RemoveEdgeComponent -->
<g id="node19" class="node">
<title>RemoveEdgeComponent</title>
<polygon fill="#ffffb3" stroke="black" points="1759.26,-122 1602.74,-122 1602.74,-86 1759.26,-86 1759.26,-122"/>
<text text-anchor="middle" x="1681" y="-99.8" font-family="Times,serif" font-size="14.00">RemoveEdgeComponent</text>
</g>
<!-- RemoveEdgeComponent&#45;&gt;AppModule -->
<g id="edge19" class="edge">
<title>RemoveEdgeComponent&#45;&gt;AppModule</title>
<path fill="none" stroke="black" d="M1681,-122.04C1681,-138.73 1681,-161 1681,-161 1681,-161 2461.17,-161 2461.17,-161"/>
<polygon fill="black" stroke="black" points="2461.17,-164.5 2471.17,-161 2461.17,-157.5 2461.17,-164.5"/>
</g>
<!-- AppComponent  -->
<g id="node27" class="node">
<title>AppComponent </title>
<polygon fill="#80b1d3" stroke="black" points="2567.44,-252 2458.56,-252 2458.56,-216 2567.44,-216 2567.44,-252"/>
<text text-anchor="middle" x="2513" y="-229.8" font-family="Times,serif" font-size="14.00">AppComponent </text>
</g>
<!-- AppModule&#45;&gt;AppComponent  -->
<g id="edge26" class="edge">
<title>AppModule&#45;&gt;AppComponent </title>
<path fill="none" stroke="black" stroke-dasharray="1,5" d="M2513,-187.11C2513,-187.11 2513,-205.99 2513,-205.99"/>
<polygon fill="black" stroke="black" points="2509.5,-205.99 2513,-215.99 2516.5,-205.99 2509.5,-205.99"/>
</g>
<!-- BrowserModule -->
<g id="node21" class="node">
<title>BrowserModule</title>
<polygon fill="#8dd3c7" stroke="black" points="1579.47,-122 1576.47,-126 1555.47,-126 1552.47,-122 1472.53,-122 1472.53,-86 1579.47,-86 1579.47,-122"/>
<text text-anchor="middle" x="1526" y="-99.8" font-family="Times,serif" font-size="14.00">BrowserModule</text>
</g>
<!-- BrowserModule&#45;&gt;AppModule -->
<g id="edge20" class="edge">
<title>BrowserModule&#45;&gt;AppModule</title>
<path fill="none" stroke="black" d="M1526,-122.02C1526,-139.37 1526,-163 1526,-163 1526,-163 2461.22,-163 2461.22,-163"/>
<polygon fill="black" stroke="black" points="2461.22,-166.5 2471.22,-163 2461.22,-159.5 2461.22,-166.5"/>
</g>
<!-- AppRoutingModule -->
<g id="node22" class="node">
<title>AppRoutingModule</title>
<polygon fill="#8dd3c7" stroke="black" points="1454.27,-122 1451.27,-126 1430.27,-126 1427.27,-122 1325.73,-122 1325.73,-86 1454.27,-86 1454.27,-122"/>
<text text-anchor="middle" x="1390" y="-99.8" font-family="Times,serif" font-size="14.00">AppRoutingModule</text>
</g>
<!-- AppRoutingModule&#45;&gt;AppModule -->
<g id="edge21" class="edge">
<title>AppRoutingModule&#45;&gt;AppModule</title>
<path fill="none" stroke="black" d="M1390,-122.27C1390,-140.56 1390,-166 1390,-166 1390,-166 2461.03,-166 2461.03,-166"/>
<polygon fill="black" stroke="black" points="2461.03,-169.5 2471.03,-166 2461.03,-162.5 2461.03,-169.5"/>
</g>
<!-- FormsModule -->
<g id="node23" class="node">
<title>FormsModule</title>
<polygon fill="#8dd3c7" stroke="black" points="1307.83,-122 1304.83,-126 1283.83,-126 1280.83,-122 1212.17,-122 1212.17,-86 1307.83,-86 1307.83,-122"/>
<text text-anchor="middle" x="1260" y="-99.8" font-family="Times,serif" font-size="14.00">FormsModule</text>
</g>
<!-- FormsModule&#45;&gt;AppModule -->
<g id="edge22" class="edge">
<title>FormsModule&#45;&gt;AppModule</title>
<path fill="none" stroke="black" d="M1260,-122.17C1260,-141.09 1260,-168 1260,-168 1260,-168 2461.31,-168 2461.31,-168"/>
<polygon fill="black" stroke="black" points="2461.31,-171.5 2471.31,-168 2461.31,-164.5 2461.31,-171.5"/>
</g>
<!-- HttpClientModule -->
<g id="node24" class="node">
<title>HttpClientModule</title>
<polygon fill="#8dd3c7" stroke="black" points="1194.16,-122 1191.16,-126 1170.16,-126 1167.16,-122 1075.84,-122 1075.84,-86 1194.16,-86 1194.16,-122"/>
<text text-anchor="middle" x="1135" y="-99.8" font-family="Times,serif" font-size="14.00">HttpClientModule</text>
</g>
<!-- HttpClientModule&#45;&gt;AppModule -->
<g id="edge23" class="edge">
<title>HttpClientModule&#45;&gt;AppModule</title>
<path fill="none" stroke="black" d="M1135,-122.31C1135,-142.15 1135,-171 1135,-171 1135,-171 2461.01,-171 2461.01,-171"/>
<polygon fill="black" stroke="black" points="2461.01,-174.5 2471.01,-171 2461.01,-167.5 2461.01,-174.5"/>
</g>
<!-- TranslateModule.forRoot(args) -->
<g id="node25" class="node">
<title>TranslateModule.forRoot(args)</title>
<polygon fill="#8dd3c7" stroke="black" points="1057.82,-122 1054.82,-126 1033.82,-126 1030.82,-122 866.18,-122 866.18,-86 1057.82,-86 1057.82,-122"/>
<text text-anchor="middle" x="962" y="-99.8" font-family="Times,serif" font-size="14.00">TranslateModule.forRoot(args)</text>
</g>
<!-- TranslateModule.forRoot(args)&#45;&gt;AppModule -->
<g id="edge24" class="edge">
<title>TranslateModule.forRoot(args)&#45;&gt;AppModule</title>
<path fill="none" stroke="black" d="M962,-122.13C962,-142.57 962,-173 962,-173 962,-173 2461.11,-173 2461.11,-173"/>
<polygon fill="black" stroke="black" points="2461.11,-176.5 2471.11,-173 2461.11,-169.5 2461.11,-176.5"/>
</g>
<!-- CommonModule -->
<g id="node26" class="node">
<title>CommonModule</title>
<polygon fill="#8dd3c7" stroke="black" points="848.67,-122 845.67,-126 824.67,-126 821.67,-122 737.33,-122 737.33,-86 848.67,-86 848.67,-122"/>
<text text-anchor="middle" x="793" y="-99.8" font-family="Times,serif" font-size="14.00">CommonModule</text>
</g>
<!-- CommonModule&#45;&gt;AppModule -->
<g id="edge25" class="edge">
<title>CommonModule&#45;&gt;AppModule</title>
<path fill="none" stroke="black" d="M793,-122.28C793,-143.32 793,-175 793,-175 793,-175 2461.34,-175 2461.34,-175"/>
<polygon fill="black" stroke="black" points="2461.34,-178.5 2471.34,-175 2461.34,-171.5 2461.34,-178.5"/>
</g>
<!-- GrapheService -->
<g id="node28" class="node">
<title>GrapheService</title>
<ellipse fill="#fdb462" stroke="black" cx="645" cy="-104" rx="68.32" ry="18"/>
<text text-anchor="middle" x="645" y="-99.8" font-family="Times,serif" font-size="14.00">GrapheService</text>
</g>
<!-- GrapheService&#45;&gt;AppModule -->
<g id="edge27" class="edge">
<title>GrapheService&#45;&gt;AppModule</title>
<path fill="none" stroke="black" d="M645,-122.29C645,-144.21 645,-178 645,-178 645,-178 2460.92,-178 2460.92,-178"/>
<polygon fill="black" stroke="black" points="2460.92,-181.5 2470.92,-178 2460.92,-174.5 2460.92,-181.5"/>
</g>
<!-- AlgorithmService -->
<g id="node29" class="node">
<title>AlgorithmService</title>
<ellipse fill="#fdb462" stroke="black" cx="478" cy="-104" rx="80.45" ry="18"/>
<text text-anchor="middle" x="478" y="-99.8" font-family="Times,serif" font-size="14.00">AlgorithmService</text>
</g>
<!-- AlgorithmService&#45;&gt;AppModule -->
<g id="edge28" class="edge">
<title>AlgorithmService&#45;&gt;AppModule</title>
<path fill="none" stroke="black" d="M478,-122.01C478,-144.49 478,-180 478,-180 478,-180 2460.96,-180 2460.96,-180"/>
<polygon fill="black" stroke="black" points="2460.96,-183.5 2470.96,-180 2460.96,-176.5 2460.96,-183.5"/>
</g>
<!-- SaveUploadService -->
<g id="node30" class="node">
<title>SaveUploadService</title>
<ellipse fill="#fdb462" stroke="black" cx="293" cy="-104" rx="87.38" ry="18"/>
<text text-anchor="middle" x="293" y="-99.8" font-family="Times,serif" font-size="14.00">SaveUploadService</text>
</g>
<!-- SaveUploadService&#45;&gt;AppModule -->
<g id="edge29" class="edge">
<title>SaveUploadService&#45;&gt;AppModule</title>
<path fill="none" stroke="black" d="M293,-122.32C293,-145.66 293,-183 293,-183 293,-183 2461.12,-183 2461.12,-183"/>
<polygon fill="black" stroke="black" points="2461.12,-186.5 2471.12,-183 2461.12,-179.5 2461.12,-186.5"/>
</g>
<!-- DarkModeService -->
<g id="node31" class="node">
<title>DarkModeService</title>
<ellipse fill="#fdb462" stroke="black" cx="106" cy="-104" rx="81.64" ry="18"/>
<text text-anchor="middle" x="106" y="-99.8" font-family="Times,serif" font-size="14.00">DarkModeService</text>
</g>
<!-- DarkModeService&#45;&gt;AppModule -->
<g id="edge30" class="edge">
<title>DarkModeService&#45;&gt;AppModule</title>
<path fill="none" stroke="black" d="M106,-122.38C106,-146.28 106,-185 106,-185 106,-185 2461.22,-185 2461.22,-185"/>
<polygon fill="black" stroke="black" points="2461.22,-188.5 2471.22,-185 2461.22,-181.5 2461.22,-188.5"/>
</g>
</g>
</svg>
