<?xml version="1.0" encoding="UTF-8" standalone="no"?>
<!DOCTYPE svg PUBLIC "-//W3C//DTD SVG 1.1//EN"
 "http://www.w3.org/Graphics/SVG/1.1/DTD/svg11.dtd">
<!-- Generated by graphviz version 2.47.0 (20210316.0004)
 -->
<!-- Title: dependencies Pages: 1 -->
<svg width="4054pt" height="284pt"
 viewBox="0.00 0.00 4054.00 284.00" xmlns="http://www.w3.org/2000/svg" xmlns:xlink="http://www.w3.org/1999/xlink">
<g id="graph0" class="graph" transform="scale(1 1) rotate(0) translate(4 280)">
<title>dependencies</title>
<polygon fill="white" stroke="transparent" points="-4,4 -4,-280 4050,-280 4050,4 -4,4"/>
<text text-anchor="start" x="2002.01" y="-42.4" font-family="Times-12" font-weight="bold" font-size="14.00">Legend</text>
<polygon fill="#ffffb3" stroke="transparent" points="1789,-10 1789,-30 1809,-30 1809,-10 1789,-10"/>
<text text-anchor="start" x="1812.63" y="-15.4" font-family="Times-12" font-size="14.00"> &#160;Declarations</text>
<polygon fill="#8dd3c7" stroke="transparent" points="1902,-10 1902,-30 1922,-30 1922,-10 1902,-10"/>
<text text-anchor="start" x="1925.73" y="-15.4" font-family="Times-12" font-size="14.00"> &#160;Module</text>
<polygon fill="#80b1d3" stroke="transparent" points="1988,-10 1988,-30 2008,-30 2008,-10 1988,-10"/>
<text text-anchor="start" x="2011.78" y="-15.4" font-family="Times-12" font-size="14.00"> &#160;Bootstrap</text>
<polygon fill="#fdb462" stroke="transparent" points="2085,-10 2085,-30 2105,-30 2105,-10 2085,-10"/>
<text text-anchor="start" x="2108.67" y="-15.4" font-family="Times-12" font-size="14.00"> &#160;Providers</text>
<polygon fill="#fb8072" stroke="transparent" points="2181,-10 2181,-30 2201,-30 2201,-10 2181,-10"/>
<text text-anchor="start" x="2204.73" y="-15.4" font-family="Times-12" font-size="14.00"> &#160;Exports</text>
<g id="clust1" class="cluster">
<title>cluster_AppModule</title>
<polygon fill="none" stroke="black" stroke-dasharray="1,5" points="8,-70 8,-268 4038,-268 4038,-70 8,-70"/>
</g>
<g id="clust2" class="cluster">
<title>cluster_AppModule_declarations</title>
<polygon fill="none" stroke="black" points="1595,-78 1595,-130 4030,-130 4030,-78 1595,-78"/>
</g>
<g id="clust19" class="cluster">
<title>cluster_AppModule_imports</title>
<polygon fill="none" stroke="black" points="729,-78 729,-130 1587,-130 1587,-78 729,-78"/>
</g>
<g id="clust21" class="cluster">
<title>cluster_AppModule_bootstrap</title>
<polygon fill="none" stroke="black" points="2066,-208 2066,-260 2190,-260 2190,-208 2066,-208"/>
</g>
<g id="clust22" class="cluster">
<title>cluster_AppModule_providers</title>
<polygon fill="none" stroke="black" points="16,-78 16,-130 721,-130 721,-78 16,-78"/>
</g>
<!-- AppComponent -->
<g id="node1" class="node">
<title>AppComponent</title>
<polygon fill="#ffffb3" stroke="black" points="4021.94,-122 3916.06,-122 3916.06,-86 4021.94,-86 4021.94,-122"/>
<text text-anchor="middle" x="3969" y="-99.8" font-family="Times,serif" font-size="14.00">AppComponent</text>
</g>
<!-- AppModule -->
<g id="node17" class="node">
<title>AppModule</title>
<polygon fill="#8dd3c7" stroke="black" points="2169.66,-187 2166.66,-191 2145.66,-191 2142.66,-187 2086.34,-187 2086.34,-151 2169.66,-151 2169.66,-187"/>
<text text-anchor="middle" x="2128" y="-164.8" font-family="Times,serif" font-size="14.00">AppModule</text>
</g>
<!-- AppComponent&#45;&gt;AppModule -->
<g id="edge1" class="edge">
<title>AppComponent&#45;&gt;AppModule</title>
<path fill="none" stroke="black" d="M3969,-122.38C3969,-146.28 3969,-185 3969,-185 3969,-185 2179.91,-185 2179.91,-185"/>
<polygon fill="black" stroke="black" points="2179.91,-181.5 2169.91,-185 2179.91,-188.5 2179.91,-181.5"/>
</g>
<!-- HeaderComponent -->
<g id="node2" class="node">
<title>HeaderComponent</title>
<polygon fill="#ffffb3" stroke="black" points="3897.74,-122 3776.26,-122 3776.26,-86 3897.74,-86 3897.74,-122"/>
<text text-anchor="middle" x="3837" y="-99.8" font-family="Times,serif" font-size="14.00">HeaderComponent</text>
</g>
<!-- HeaderComponent&#45;&gt;AppModule -->
<g id="edge2" class="edge">
<title>HeaderComponent&#45;&gt;AppModule</title>
<path fill="none" stroke="black" d="M3837,-122.09C3837,-145.13 3837,-182 3837,-182 3837,-182 2179.82,-182 2179.82,-182"/>
<polygon fill="black" stroke="black" points="2179.82,-178.5 2169.82,-182 2179.82,-185.5 2179.82,-178.5"/>
</g>
<!-- ScreenboxComponent -->
<g id="node3" class="node">
<title>ScreenboxComponent</title>
<polygon fill="#ffffb3" stroke="black" points="3758.42,-122 3617.58,-122 3617.58,-86 3758.42,-86 3758.42,-122"/>
<text text-anchor="middle" x="3688" y="-99.8" font-family="Times,serif" font-size="14.00">ScreenboxComponent</text>
</g>
<!-- ScreenboxComponent&#45;&gt;AppModule -->
<g id="edge3" class="edge">
<title>ScreenboxComponent&#45;&gt;AppModule</title>
<path fill="none" stroke="black" d="M3688,-122.16C3688,-144.35 3688,-179 3688,-179 3688,-179 2179.73,-179 2179.73,-179"/>
<polygon fill="black" stroke="black" points="2179.73,-175.5 2169.73,-179 2179.73,-182.5 2179.73,-175.5"/>
</g>
<!-- FooterComponent -->
<g id="node4" class="node">
<title>FooterComponent</title>
<polygon fill="#ffffb3" stroke="black" points="3599.88,-122 3482.12,-122 3482.12,-86 3599.88,-86 3599.88,-122"/>
<text text-anchor="middle" x="3541" y="-99.8" font-family="Times,serif" font-size="14.00">FooterComponent</text>
</g>
<!-- FooterComponent&#45;&gt;AppModule -->
<g id="edge4" class="edge">
<title>FooterComponent&#45;&gt;AppModule</title>
<path fill="none" stroke="black" d="M3541,-122.17C3541,-143.5 3541,-176 3541,-176 3541,-176 2179.9,-176 2179.9,-176"/>
<polygon fill="black" stroke="black" points="2179.9,-172.5 2169.9,-176 2179.9,-179.5 2179.9,-172.5"/>
</g>
<!-- AboutComponent -->
<g id="node5" class="node">
<title>AboutComponent</title>
<polygon fill="#ffffb3" stroke="black" points="3464.33,-122 3347.67,-122 3347.67,-86 3464.33,-86 3464.33,-122"/>
<text text-anchor="middle" x="3406" y="-99.8" font-family="Times,serif" font-size="14.00">AboutComponent</text>
</g>
<!-- AboutComponent&#45;&gt;AppModule -->
<g id="edge5" class="edge">
<title>AboutComponent&#45;&gt;AppModule</title>
<path fill="none" stroke="black" d="M3406,-122.03C3406,-142.77 3406,-174 3406,-174 3406,-174 2179.79,-174 2179.79,-174"/>
<polygon fill="black" stroke="black" points="2179.79,-170.5 2169.79,-174 2179.79,-177.5 2179.79,-170.5"/>
</g>
<!-- ContactComponent -->
<g id="node6" class="node">
<title>ContactComponent</title>
<polygon fill="#ffffb3" stroke="black" points="3329.38,-122 3204.62,-122 3204.62,-86 3329.38,-86 3329.38,-122"/>
<text text-anchor="middle" x="3267" y="-99.8" font-family="Times,serif" font-size="14.00">ContactComponent</text>
</g>
<!-- ContactComponent&#45;&gt;AppModule -->
<g id="edge6" class="edge">
<title>ContactComponent&#45;&gt;AppModule</title>
<path fill="none" stroke="black" d="M3267,-122.31C3267,-142.15 3267,-171 3267,-171 3267,-171 2179.89,-171 2179.89,-171"/>
<polygon fill="black" stroke="black" points="2179.89,-167.5 2169.89,-171 2179.89,-174.5 2179.89,-167.5"/>
</g>
<!-- InfoComponent -->
<g id="node7" class="node">
<title>InfoComponent</title>
<polygon fill="#ffffb3" stroke="black" points="3186.15,-122 3081.85,-122 3081.85,-86 3186.15,-86 3186.15,-122"/>
<text text-anchor="middle" x="3134" y="-99.8" font-family="Times,serif" font-size="14.00">InfoComponent</text>
</g>
<!-- InfoComponent&#45;&gt;AppModule -->
<g id="edge7" class="edge">
<title>InfoComponent&#45;&gt;AppModule</title>
<path fill="none" stroke="black" d="M3134,-122.17C3134,-141.09 3134,-168 3134,-168 3134,-168 2179.95,-168 2179.95,-168"/>
<polygon fill="black" stroke="black" points="2179.95,-164.5 2169.95,-168 2179.95,-171.5 2179.95,-164.5"/>
</g>
<!-- MessageComponent -->
<g id="node8" class="node">
<title>MessageComponent</title>
<polygon fill="#ffffb3" stroke="black" points="3064.31,-122 2933.69,-122 2933.69,-86 3064.31,-86 3064.31,-122"/>
<text text-anchor="middle" x="2999" y="-99.8" font-family="Times,serif" font-size="14.00">MessageComponent</text>
</g>
<!-- MessageComponent&#45;&gt;AppModule -->
<g id="edge8" class="edge">
<title>MessageComponent&#45;&gt;AppModule</title>
<path fill="none" stroke="black" d="M2999,-122.3C2999,-140.27 2999,-165 2999,-165 2999,-165 2179.72,-165 2179.72,-165"/>
<polygon fill="black" stroke="black" points="2179.72,-161.5 2169.72,-165 2179.72,-168.5 2179.72,-161.5"/>
</g>
<!-- ScreenComponent -->
<g id="node9" class="node">
<title>ScreenComponent</title>
<polygon fill="#ffffb3" stroke="black" points="2915.92,-122 2796.08,-122 2796.08,-86 2915.92,-86 2915.92,-122"/>
<text text-anchor="middle" x="2856" y="-99.8" font-family="Times,serif" font-size="14.00">ScreenComponent</text>
</g>
<!-- ScreenComponent&#45;&gt;AppModule -->
<g id="edge9" class="edge">
<title>ScreenComponent&#45;&gt;AppModule</title>
<path fill="none" stroke="black" d="M2856,-122.02C2856,-139.37 2856,-163 2856,-163 2856,-163 2179.76,-163 2179.76,-163"/>
<polygon fill="black" stroke="black" points="2179.76,-159.5 2169.76,-163 2179.76,-166.5 2179.76,-159.5"/>
</g>
<!-- AddWeightedEdgeComponent -->
<g id="node10" class="node">
<title>AddWeightedEdgeComponent</title>
<polygon fill="#ffffb3" stroke="black" points="2778.13,-122 2589.87,-122 2589.87,-86 2778.13,-86 2778.13,-122"/>
<text text-anchor="middle" x="2684" y="-99.8" font-family="Times,serif" font-size="14.00">AddWeightedEdgeComponent</text>
</g>
<!-- AddWeightedEdgeComponent&#45;&gt;AppModule -->
<g id="edge10" class="edge">
<title>AddWeightedEdgeComponent&#45;&gt;AppModule</title>
<path fill="none" stroke="black" d="M2684,-122.03C2684,-138.4 2684,-160 2684,-160 2684,-160 2179.79,-160 2179.79,-160"/>
<polygon fill="black" stroke="black" points="2179.79,-156.5 2169.79,-160 2179.79,-163.5 2179.79,-156.5"/>
</g>
<!-- MatrixComponent -->
<g id="node11" class="node">
<title>MatrixComponent</title>
<polygon fill="#ffffb3" stroke="black" points="2571.93,-122 2452.07,-122 2452.07,-86 2571.93,-86 2571.93,-122"/>
<text text-anchor="middle" x="2512" y="-99.8" font-family="Times,serif" font-size="14.00">MatrixComponent</text>
</g>
<!-- MatrixComponent&#45;&gt;AppModule -->
<g id="edge11" class="edge">
<title>MatrixComponent&#45;&gt;AppModule</title>
<path fill="none" stroke="black" d="M2512,-122.24C2512,-137.57 2512,-157 2512,-157 2512,-157 2179.83,-157 2179.83,-157"/>
<polygon fill="black" stroke="black" points="2179.83,-153.5 2169.83,-157 2179.83,-160.5 2179.83,-153.5"/>
</g>
<!-- SelectComponent -->
<g id="node12" class="node">
<title>SelectComponent</title>
<polygon fill="#ffffb3" stroke="black" points="2434.54,-122 2319.46,-122 2319.46,-86 2434.54,-86 2434.54,-122"/>
<text text-anchor="middle" x="2377" y="-99.8" font-family="Times,serif" font-size="14.00">SelectComponent</text>
</g>
<!-- SelectComponent&#45;&gt;AppModule -->
<g id="edge12" class="edge">
<title>SelectComponent&#45;&gt;AppModule</title>
<path fill="none" stroke="black" d="M2377,-122.05C2377,-136.37 2377,-154 2377,-154 2377,-154 2179.68,-154 2179.68,-154"/>
<polygon fill="black" stroke="black" points="2179.68,-150.5 2169.68,-154 2179.68,-157.5 2179.68,-150.5"/>
</g>
<!-- ChangeIdNodeComponent -->
<g id="node13" class="node">
<title>ChangeIdNodeComponent</title>
<polygon fill="#ffffb3" stroke="black" points="2301.08,-122 2134.92,-122 2134.92,-86 2301.08,-86 2301.08,-122"/>
<text text-anchor="middle" x="2218" y="-99.8" font-family="Times,serif" font-size="14.00">ChangeIdNodeComponent</text>
</g>
<!-- ChangeIdNodeComponent&#45;&gt;AppModule -->
<g id="edge13" class="edge">
<title>ChangeIdNodeComponent&#45;&gt;AppModule</title>
<path fill="none" stroke="black" d="M2152.39,-122.11C2152.39,-122.11 2152.39,-140.99 2152.39,-140.99"/>
<polygon fill="black" stroke="black" points="2148.89,-140.99 2152.39,-150.99 2155.89,-140.99 2148.89,-140.99"/>
</g>
<!-- ChangeColorComponent -->
<g id="node14" class="node">
<title>ChangeColorComponent</title>
<polygon fill="#ffffb3" stroke="black" points="2116.99,-122 1961.01,-122 1961.01,-86 2116.99,-86 2116.99,-122"/>
<text text-anchor="middle" x="2039" y="-99.8" font-family="Times,serif" font-size="14.00">ChangeColorComponent</text>
</g>
<!-- ChangeColorComponent&#45;&gt;AppModule -->
<g id="edge14" class="edge">
<title>ChangeColorComponent&#45;&gt;AppModule</title>
<path fill="none" stroke="black" d="M2101.58,-122.11C2101.58,-122.11 2101.58,-140.99 2101.58,-140.99"/>
<polygon fill="black" stroke="black" points="2098.08,-140.99 2101.58,-150.99 2105.08,-140.99 2098.08,-140.99"/>
</g>
<!-- AddNodeComponent -->
<g id="node15" class="node">
<title>AddNodeComponent</title>
<polygon fill="#ffffb3" stroke="black" points="1942.76,-122 1807.24,-122 1807.24,-86 1942.76,-86 1942.76,-122"/>
<text text-anchor="middle" x="1875" y="-99.8" font-family="Times,serif" font-size="14.00">AddNodeComponent</text>
</g>
<!-- AddNodeComponent&#45;&gt;AppModule -->
<g id="edge15" class="edge">
<title>AddNodeComponent&#45;&gt;AppModule</title>
<path fill="none" stroke="black" d="M1875,-122.05C1875,-136.37 1875,-154 1875,-154 1875,-154 2076.22,-154 2076.22,-154"/>
<polygon fill="black" stroke="black" points="2076.22,-157.5 2086.22,-154 2076.22,-150.5 2076.22,-157.5"/>
</g>
<!-- ChangeSizeScreenComponent -->
<g id="node16" class="node">
<title>ChangeSizeScreenComponent</title>
<polygon fill="#ffffb3" stroke="black" points="1789.29,-122 1602.71,-122 1602.71,-86 1789.29,-86 1789.29,-122"/>
<text text-anchor="middle" x="1696" y="-99.8" font-family="Times,serif" font-size="14.00">ChangeSizeScreenComponent</text>
</g>
<!-- ChangeSizeScreenComponent&#45;&gt;AppModule -->
<g id="edge16" class="edge">
<title>ChangeSizeScreenComponent&#45;&gt;AppModule</title>
<path fill="none" stroke="black" d="M1696,-122.24C1696,-137.57 1696,-157 1696,-157 1696,-157 2076.19,-157 2076.19,-157"/>
<polygon fill="black" stroke="black" points="2076.19,-160.5 2086.19,-157 2076.19,-153.5 2076.19,-160.5"/>
</g>
<!-- AppComponent  -->
<g id="node24" class="node">
<title>AppComponent </title>
<polygon fill="#80b1d3" stroke="black" points="2182.44,-252 2073.56,-252 2073.56,-216 2182.44,-216 2182.44,-252"/>
<text text-anchor="middle" x="2128" y="-229.8" font-family="Times,serif" font-size="14.00">AppComponent </text>
</g>
<!-- AppModule&#45;&gt;AppComponent  -->
<g id="edge23" class="edge">
<title>AppModule&#45;&gt;AppComponent </title>
<path fill="none" stroke="black" stroke-dasharray="1,5" d="M2128,-187.11C2128,-187.11 2128,-205.99 2128,-205.99"/>
<polygon fill="black" stroke="black" points="2124.5,-205.99 2128,-215.99 2131.5,-205.99 2124.5,-205.99"/>
</g>
<!-- BrowserModule -->
<g id="node18" class="node">
<title>BrowserModule</title>
<polygon fill="#8dd3c7" stroke="black" points="1579.47,-122 1576.47,-126 1555.47,-126 1552.47,-122 1472.53,-122 1472.53,-86 1579.47,-86 1579.47,-122"/>
<text text-anchor="middle" x="1526" y="-99.8" font-family="Times,serif" font-size="14.00">BrowserModule</text>
</g>
<!-- BrowserModule&#45;&gt;AppModule -->
<g id="edge17" class="edge">
<title>BrowserModule&#45;&gt;AppModule</title>
<path fill="none" stroke="black" d="M1526,-122.03C1526,-138.4 1526,-160 1526,-160 1526,-160 2076.15,-160 2076.15,-160"/>
<polygon fill="black" stroke="black" points="2076.15,-163.5 2086.15,-160 2076.15,-156.5 2076.15,-163.5"/>
</g>
<!-- AppRoutingModule -->
<g id="node19" class="node">
<title>AppRoutingModule</title>
<polygon fill="#8dd3c7" stroke="black" points="1454.27,-122 1451.27,-126 1430.27,-126 1427.27,-122 1325.73,-122 1325.73,-86 1454.27,-86 1454.27,-122"/>
<text text-anchor="middle" x="1390" y="-99.8" font-family="Times,serif" font-size="14.00">AppRoutingModule</text>
</g>
<!-- AppRoutingModule&#45;&gt;AppModule -->
<g id="edge18" class="edge">
<title>AppRoutingModule&#45;&gt;AppModule</title>
<path fill="none" stroke="black" d="M1390,-122.02C1390,-139.37 1390,-163 1390,-163 1390,-163 2076.21,-163 2076.21,-163"/>
<polygon fill="black" stroke="black" points="2076.21,-166.5 2086.21,-163 2076.21,-159.5 2076.21,-166.5"/>
</g>
<!-- FormsModule -->
<g id="node20" class="node">
<title>FormsModule</title>
<polygon fill="#8dd3c7" stroke="black" points="1307.83,-122 1304.83,-126 1283.83,-126 1280.83,-122 1212.17,-122 1212.17,-86 1307.83,-86 1307.83,-122"/>
<text text-anchor="middle" x="1260" y="-99.8" font-family="Times,serif" font-size="14.00">FormsModule</text>
</g>
<!-- FormsModule&#45;&gt;AppModule -->
<g id="edge19" class="edge">
<title>FormsModule&#45;&gt;AppModule</title>
<path fill="none" stroke="black" d="M1260,-122.3C1260,-140.27 1260,-165 1260,-165 1260,-165 2076.13,-165 2076.13,-165"/>
<polygon fill="black" stroke="black" points="2076.13,-168.5 2086.13,-165 2076.13,-161.5 2076.13,-168.5"/>
</g>
<!-- HttpClientModule -->
<g id="node21" class="node">
<title>HttpClientModule</title>
<polygon fill="#8dd3c7" stroke="black" points="1194.16,-122 1191.16,-126 1170.16,-126 1167.16,-122 1075.84,-122 1075.84,-86 1194.16,-86 1194.16,-122"/>
<text text-anchor="middle" x="1135" y="-99.8" font-family="Times,serif" font-size="14.00">HttpClientModule</text>
</g>
<!-- HttpClientModule&#45;&gt;AppModule -->
<g id="edge20" class="edge">
<title>HttpClientModule&#45;&gt;AppModule</title>
<path fill="none" stroke="black" d="M1135,-122.17C1135,-141.09 1135,-168 1135,-168 1135,-168 2076.28,-168 2076.28,-168"/>
<polygon fill="black" stroke="black" points="2076.28,-171.5 2086.28,-168 2076.28,-164.5 2076.28,-171.5"/>
</g>
<!-- TranslateModule.forRoot(args) -->
<g id="node22" class="node">
<title>TranslateModule.forRoot(args)</title>
<polygon fill="#8dd3c7" stroke="black" points="1057.82,-122 1054.82,-126 1033.82,-126 1030.82,-122 866.18,-122 866.18,-86 1057.82,-86 1057.82,-122"/>
<text text-anchor="middle" x="962" y="-99.8" font-family="Times,serif" font-size="14.00">TranslateModule.forRoot(args)</text>
</g>
<!-- TranslateModule.forRoot(args)&#45;&gt;AppModule -->
<g id="edge21" class="edge">
<title>TranslateModule.forRoot(args)&#45;&gt;AppModule</title>
<path fill="none" stroke="black" d="M962,-122.31C962,-142.15 962,-171 962,-171 962,-171 2076.16,-171 2076.16,-171"/>
<polygon fill="black" stroke="black" points="2076.16,-174.5 2086.16,-171 2076.16,-167.5 2076.16,-174.5"/>
</g>
<!-- CommonModule -->
<g id="node23" class="node">
<title>CommonModule</title>
<polygon fill="#8dd3c7" stroke="black" points="848.67,-122 845.67,-126 824.67,-126 821.67,-122 737.33,-122 737.33,-86 848.67,-86 848.67,-122"/>
<text text-anchor="middle" x="793" y="-99.8" font-family="Times,serif" font-size="14.00">CommonModule</text>
</g>
<!-- CommonModule&#45;&gt;AppModule -->
<g id="edge22" class="edge">
<title>CommonModule&#45;&gt;AppModule</title>
<path fill="none" stroke="black" d="M793,-122.03C793,-142.77 793,-174 793,-174 793,-174 2076.21,-174 2076.21,-174"/>
<polygon fill="black" stroke="black" points="2076.21,-177.5 2086.21,-174 2076.21,-170.5 2076.21,-177.5"/>
</g>
<!-- GrapheService -->
<g id="node25" class="node">
<title>GrapheService</title>
<ellipse fill="#fdb462" stroke="black" cx="645" cy="-104" rx="68.32" ry="18"/>
<text text-anchor="middle" x="645" y="-99.8" font-family="Times,serif" font-size="14.00">GrapheService</text>
</g>
<!-- GrapheService&#45;&gt;AppModule -->
<g id="edge24" class="edge">
<title>GrapheService&#45;&gt;AppModule</title>
<path fill="none" stroke="black" d="M645,-122.17C645,-143.5 645,-176 645,-176 645,-176 2076.01,-176 2076.01,-176"/>
<polygon fill="black" stroke="black" points="2076.01,-179.5 2086.01,-176 2076.01,-172.5 2076.01,-179.5"/>
</g>
<!-- AlgorithmService -->
<g id="node26" class="node">
<title>AlgorithmService</title>
<ellipse fill="#fdb462" stroke="black" cx="478" cy="-104" rx="80.45" ry="18"/>
<text text-anchor="middle" x="478" y="-99.8" font-family="Times,serif" font-size="14.00">AlgorithmService</text>
</g>
<!-- AlgorithmService&#45;&gt;AppModule -->
<g id="edge25" class="edge">
<title>AlgorithmService&#45;&gt;AppModule</title>
<path fill="none" stroke="black" d="M478,-122.16C478,-144.35 478,-179 478,-179 478,-179 2075.97,-179 2075.97,-179"/>
<polygon fill="black" stroke="black" points="2075.97,-182.5 2085.97,-179 2075.97,-175.5 2075.97,-182.5"/>
</g>
<!-- SaveUploadService -->
<g id="node27" class="node">
<title>SaveUploadService</title>
<ellipse fill="#fdb462" stroke="black" cx="293" cy="-104" rx="87.38" ry="18"/>
<text text-anchor="middle" x="293" y="-99.8" font-family="Times,serif" font-size="14.00">SaveUploadService</text>
</g>
<!-- SaveUploadService&#45;&gt;AppModule -->
<g id="edge26" class="edge">
<title>SaveUploadService&#45;&gt;AppModule</title>
<path fill="none" stroke="black" d="M293,-122.09C293,-145.13 293,-182 293,-182 293,-182 2076.23,-182 2076.23,-182"/>
<polygon fill="black" stroke="black" points="2076.23,-185.5 2086.23,-182 2076.23,-178.5 2076.23,-185.5"/>
</g>
<!-- DarkModeService -->
<g id="node28" class="node">
<title>DarkModeService</title>
<ellipse fill="#fdb462" stroke="black" cx="106" cy="-104" rx="81.64" ry="18"/>
<text text-anchor="middle" x="106" y="-99.8" font-family="Times,serif" font-size="14.00">DarkModeService</text>
</g>
<!-- DarkModeService&#45;&gt;AppModule -->
<g id="edge27" class="edge">
<title>DarkModeService&#45;&gt;AppModule</title>
<path fill="none" stroke="black" d="M106,-122.38C106,-146.28 106,-185 106,-185 106,-185 2076.23,-185 2076.23,-185"/>
<polygon fill="black" stroke="black" points="2076.23,-188.5 2086.23,-185 2076.23,-181.5 2076.23,-188.5"/>
</g>
</g>
</svg>
